<svg width="26" height="26" viewBox="0 0 26 26" fill="none" xmlns="http://www.w3.org/2000/svg">
<path d="M12.9658 5C14.4692 5 15.6841 5.41948 16.6105 6.25843C17.5368 7.09738 18 8.22097 18 9.62921C18 11.2022 17.5065 12.3708 16.5194 13.1348C15.5323 13.8839 14.1959 14.2584 12.5103 14.2584L12.4706 15.4968C12.4546 15.9965 12.0449 16.3933 11.545 16.3933V16.3933C11.0428 16.3933 10.6321 15.993 10.6192 15.4909L10.5682 13.5031C10.5589 13.1411 10.8498 12.8427 11.2118 12.8427V12.8427C12.7153 12.8427 13.8922 12.618 14.7426 12.1685C15.593 11.7191 16.0182 10.8727 16.0182 9.62921C16.0182 8.73034 15.7449 8.01873 15.1982 7.49438C14.6515 6.97004 13.915 6.70786 12.9886 6.70786C12.0471 6.70786 11.303 6.96255 10.7563 7.47191C10.4409 7.76526 10.2191 8.12455 10.0908 8.54978C9.93462 9.0677 9.52046 9.51685 8.9795 9.51685V9.51685C8.43854 9.51685 7.9869 9.07413 8.08843 8.54278C8.18495 8.03765 8.36049 7.57583 8.61503 7.1573C9.02506 6.46816 9.60213 5.93633 10.3462 5.5618C11.1055 5.18727 11.9787 5 12.9658 5ZM11.5308 21C11.1359 21 10.8018 20.8652 10.5285 20.5955C10.2551 20.3258 10.1185 19.9963 10.1185 19.6067C10.1185 19.2172 10.2551 18.8876 10.5285 18.618C10.8018 18.3483 11.1359 18.2135 11.5308 18.2135C11.9104 18.2135 12.2293 18.3483 12.4875 18.618C12.7608 18.8876 12.8975 19.2172 12.8975 19.6067C12.8975 19.9963 12.7608 20.3258 12.4875 20.5955C12.2293 20.8652 11.9104 21 11.5308 21Z" fill="white"/>
</svg>
