<svg width="281" height="367" viewBox="0 0 281 367" fill="none" xmlns="http://www.w3.org/2000/svg">
<ellipse cx="140.5" cy="341.5" rx="140.5" ry="25.5" fill="white" fill-opacity="0.07"/>
<path d="M93.3075 260.356C82.0629 260.356 72.668 251.879 71.451 240.649C70.8182 234.786 72.4976 229.021 76.1809 224.42C79.8642 219.819 85.1134 216.936 90.9548 216.301L180.758 206.521C181.553 206.432 182.364 206.391 183.159 206.391C194.404 206.391 203.799 214.868 205.016 226.097C205.649 231.96 203.969 237.726 200.286 242.327C196.603 246.928 191.354 249.81 185.512 250.445L95.709 260.225C94.9139 260.315 94.1026 260.356 93.3075 260.356Z" fill="#FFD629"/>
<path d="M183.159 208.37C193.26 208.37 201.949 216.008 203.06 226.317C204.253 237.359 196.302 247.286 185.301 248.483L95.4978 258.263C94.7676 258.344 94.0293 258.385 93.3073 258.385C83.2065 258.385 74.5175 250.747 73.406 240.437C72.2134 229.395 80.1641 219.469 91.1654 218.272L180.969 208.492C181.699 208.41 182.429 208.37 183.151 208.37M183.151 204.42C182.283 204.42 181.407 204.469 180.539 204.559L90.7354 214.339C84.3667 215.031 78.6551 218.174 74.6392 223.182C70.6232 228.19 68.7978 234.468 69.4874 240.861C70.8098 253.1 81.0485 262.334 93.2992 262.334C94.1673 262.334 95.0435 262.285 95.9116 262.196L185.715 252.416C198.858 250.983 208.391 239.086 206.963 225.894C205.64 213.655 195.402 204.428 183.151 204.428V204.42Z" fill="black"/>
<path d="M103.903 235.104C75.3942 235.104 70.5832 225.739 66.5835 188.525C63.5573 160.415 71.9543 144.756 79.5238 136.572C87.8315 127.59 96.837 125.424 97.2183 125.334C97.3643 125.302 97.5104 125.286 97.6564 125.286C97.7294 125.286 97.8106 125.286 97.8836 125.302L183.955 135.285C184.677 135.367 185.302 135.847 185.561 136.531C186.032 137.761 186.616 139.186 187.257 140.79C193.918 157.296 207.783 191.636 193.991 213.476C186.778 224.901 172.97 231.268 152.963 232.4C145.361 232.832 138.408 233.296 132.267 233.711C120.657 234.493 111.481 235.104 103.903 235.104Z" fill="#56D8BF"/>
<path d="M97.656 127.264L183.727 137.247C191.248 156.718 224.341 226.399 152.849 230.438C131.228 231.659 115.488 233.133 103.903 233.133C77.1787 233.133 72.5137 225.275 68.5383 188.321C62.8429 135.334 97.656 127.264 97.656 127.264ZM97.656 123.315C97.3558 123.315 97.0637 123.347 96.7716 123.412C96.366 123.502 86.7926 125.806 78.0792 135.228C70.2339 143.713 61.5286 159.885 64.6278 188.737C66.6236 207.303 68.8871 219.509 74.5663 226.977C80.935 235.356 90.9059 237.074 103.903 237.074C111.545 237.074 120.746 236.455 132.396 235.674C138.529 235.258 145.482 234.794 153.068 234.371C173.748 233.206 188.076 226.529 195.653 214.534C209.989 191.831 195.864 156.856 189.082 140.049C188.425 138.428 187.865 137.028 187.394 135.814C186.867 134.446 185.626 133.485 184.182 133.322L98.1103 123.339C97.9643 123.323 97.8101 123.315 97.656 123.315Z" fill="black"/>
<path d="M83.7988 242.009C83.4094 242.009 83.0118 241.895 82.6711 241.659L82.0951 241.26C81.1864 240.633 80.9592 239.387 81.5839 238.475C81.9734 237.913 82.5981 237.604 83.2309 237.604C83.6203 237.604 84.0097 237.718 84.3586 237.954L84.9346 238.353C85.8433 238.98 86.0704 240.226 85.4457 241.138C85.0563 241.7 84.4316 242.009 83.7988 242.009Z" fill="#53B6F9"/>
<path d="M83.2232 239.607C83.4342 239.754 83.6208 239.884 83.7993 240.006C83.5396 239.827 83.3287 239.68 83.2232 239.607ZM83.2232 235.601C81.9495 235.601 80.7001 236.211 79.9293 237.335C78.6799 239.159 79.1424 241.651 80.9516 242.905L81.5276 243.304C82.2172 243.776 83.0042 244.012 83.783 244.012C85.0568 244.012 86.3062 243.402 87.0769 242.278C88.3263 240.454 87.8639 237.962 86.0547 236.708L85.4787 236.309C84.7891 235.837 84.0021 235.609 83.2232 235.609V235.601Z" fill="black"/>
<path d="M83.223 241.61C82.8336 241.61 82.4442 241.496 82.1034 241.268L82.0466 241.228C81.1461 240.601 80.9027 239.355 81.5193 238.443C81.9087 237.873 82.5334 237.555 83.1744 237.555C83.5476 237.555 83.9289 237.661 84.2696 237.889L84.3751 237.962C85.2756 238.597 85.4947 239.835 84.8781 240.739C84.4887 241.301 83.864 241.61 83.2311 241.61H83.223Z" fill="#53B6F9"/>
<path d="M83.1583 235.552C81.8846 235.552 80.6352 236.162 79.8563 237.302C78.615 239.126 79.0775 241.618 80.8948 242.872H80.911L81.2599 242.376L80.9191 242.88L80.9678 242.913C81.6574 243.385 82.4444 243.613 83.2232 243.613C84.497 243.613 85.7383 243.003 86.5171 241.879C87.7665 240.055 87.3122 237.563 85.4949 236.309L85.4543 236.276H85.4462L85.4138 236.244C84.7241 235.771 83.9453 235.543 83.1664 235.543L83.1583 235.552Z" fill="black"/>
<path d="M83.1585 241.569C82.7609 241.569 82.3634 241.447 82.0307 241.219C79.3859 239.395 77.5361 236.521 76.3192 234.004C74.226 236.871 70.7374 238.638 66.6403 238.638C59.3954 238.638 50.1384 232.84 45.8628 216.578C39.4616 192.222 70.3317 154.536 77.739 145.936C72.7008 142.231 70.0153 137.94 69.7476 133.16C69.2365 123.803 78.3637 116.352 78.7531 116.043C79.0938 115.766 79.5157 115.611 79.9538 115.603C79.9538 115.603 178.073 113.225 178.089 113.225C178.738 113.225 179.347 113.543 179.72 114.072C184.945 121.523 186.583 127.785 184.596 132.688C182.835 137.028 178.754 138.974 176.458 139.756C176.556 143.567 177.253 154.56 181.643 169.641C186.949 187.841 189.407 211.082 189.691 213.932C193.48 223.573 193.95 230.609 191.086 234.851C188.669 238.434 184.685 238.972 182.519 238.972C181.57 238.972 180.929 238.866 180.856 238.858C180.791 238.85 180.734 238.833 180.669 238.817C172.175 236.561 161.052 235.421 147.608 235.421C116.803 235.421 83.8481 241.472 83.5154 241.529C83.3937 241.553 83.272 241.561 83.1503 241.561L83.1585 241.569Z" fill="#53B6F9"/>
<path d="M178.089 115.237C191.922 134.967 174.446 138.249 174.446 138.249C174.446 138.249 174.081 150.855 179.728 170.211C185.366 189.575 187.735 214.412 187.735 214.412C195.954 235.12 186.251 236.968 182.519 236.968C181.707 236.968 181.18 236.879 181.18 236.879C171.59 234.33 159.729 233.418 147.608 233.418C116.251 233.418 83.1581 239.558 83.1581 239.558C78.3065 236.211 76.3675 228.475 76.3675 228.475C75.8158 233.369 71.7025 236.626 66.6481 236.626C60.0035 236.626 51.7282 230.999 47.8015 216.057C40.8892 189.754 80.7404 145.554 80.7404 145.554C60.9041 132.948 80.0103 117.606 80.0103 117.606L178.097 115.228M178.097 111.222H178L79.9129 113.6C79.0367 113.624 78.193 113.926 77.5115 114.479C77.0896 114.821 67.1836 122.899 67.7596 133.274C68.0273 138.111 70.4207 142.451 74.8828 146.229C71.2076 150.619 64.5955 158.9 58.3079 168.794C45.611 188.802 40.7756 205.055 43.9397 217.083C48.5073 234.452 58.6649 240.641 66.6481 240.641C70.2178 240.641 73.4387 239.419 75.8726 237.351C77.1301 239.379 78.7771 241.398 80.9027 242.864C81.5761 243.328 82.3631 243.572 83.1662 243.572C83.4096 243.572 83.653 243.548 83.8883 243.507C84.2128 243.45 117.006 237.433 147.616 237.433C160.897 237.433 171.842 238.556 180.166 240.763C180.287 240.796 180.409 240.82 180.539 240.845C180.685 240.869 181.448 240.983 182.527 240.983C186.94 240.983 190.567 239.208 192.741 235.983C196.019 231.138 195.662 223.768 191.654 213.467C191.256 209.542 188.839 187.198 183.557 169.087C179.679 155.765 178.73 145.708 178.503 141.107C181.164 139.951 184.733 137.679 186.445 133.453C188.701 127.875 186.989 120.969 181.35 112.924C180.604 111.857 179.379 111.222 178.081 111.222H178.097Z" fill="black"/>
<path d="M111.554 271.56C102.329 271.56 94.1272 270.551 90.0544 269.948C87.7016 269.598 85.8762 267.774 85.5111 265.396C83.7344 253.735 82.6715 237.685 82.6553 237.53C82.5985 236.618 83.1583 235.779 84.0264 235.494C99.6116 230.405 117.704 229.338 130.141 229.338C149.807 229.338 180.06 232.595 182.543 239.574C184.506 245.095 186.121 252.815 186.705 257.579C187.013 260.127 185.585 262.603 183.225 263.604C179.841 265.038 173.643 267.073 163.348 268.629C153.588 270.103 146.635 270.412 142.53 270.412C142.075 270.412 141.653 270.412 141.272 270.404C139.041 270.363 137.151 268.979 136.388 266.959C135.601 268.783 133.905 270.16 131.837 270.404C128.583 270.787 122.993 271.3 114.799 271.52C113.704 271.552 112.625 271.56 111.554 271.56Z" fill="#FF9566"/>
<path d="M130.157 231.333C156.045 231.333 179.151 235.959 180.677 240.234C182.502 245.364 184.125 252.831 184.733 257.815C184.936 259.46 183.995 261.096 182.461 261.748C179.395 263.051 173.359 265.087 163.063 266.642C153.376 268.108 146.521 268.401 142.545 268.401C142.099 268.401 141.685 268.401 141.312 268.393C139.633 268.368 138.278 267.114 138.059 265.42L136.566 258.206L133.629 256.235L134.846 264.337C135.033 266.341 133.58 268.181 131.601 268.409C128.356 268.792 122.831 269.297 114.742 269.508C113.671 269.541 112.6 269.549 111.553 269.549C102.41 269.549 94.2565 268.539 90.346 267.953C88.8613 267.733 87.7173 266.593 87.4902 265.078C85.7053 253.36 84.6587 237.384 84.6587 237.384C98.1264 232.986 114.636 231.325 130.157 231.325M130.157 227.319C117.573 227.319 99.2541 228.402 83.4174 233.581C81.6812 234.151 80.5454 235.828 80.6671 237.661C80.7077 238.32 81.7543 253.947 83.5391 265.697C84.034 268.946 86.5328 271.455 89.7618 271.927C93.8914 272.538 102.207 273.564 111.553 273.564C112.665 273.564 113.776 273.547 114.855 273.523C123.115 273.303 128.777 272.782 132.071 272.391C133.718 272.196 135.187 271.471 136.339 270.404C137.621 271.626 139.341 272.367 141.239 272.399C141.637 272.399 142.067 272.407 142.537 272.407C146.715 272.407 153.766 272.098 163.647 270.6C174.146 269.012 180.514 266.919 184.003 265.437C187.175 264.093 189.106 260.754 188.684 257.326C188.092 252.448 186.437 244.55 184.425 238.89C183.841 237.245 182.478 233.402 165.262 230.242C155.039 228.361 142.57 227.327 130.149 227.327L130.157 227.319Z" fill="black"/>
<path d="M142.359 268.995C142.359 268.995 136.68 269.37 137.556 265.925C138.432 262.481 170.397 259.37 178.64 258.385C186.883 257.391 185.463 261.463 182.859 262.937C180.255 264.411 150.172 271.935 142.359 268.995Z" fill="black"/>
<path d="M92.1719 269.777C92.1719 269.777 87.8801 268.181 87.7989 266.952C87.7178 265.722 138.838 264.077 134.433 268.385C130.035 272.684 92.1719 269.777 92.1719 269.777Z" fill="black"/>
<path d="M101.55 302.496C100.446 302.496 99.5539 301.601 99.5539 300.493L99.4971 270.241C99.4971 269.207 100.276 268.344 101.298 268.246C104.381 267.945 108.04 267.798 112.17 267.798C120.834 267.798 128.818 268.474 128.899 268.483C129.897 268.572 130.675 269.378 130.724 270.38L132.185 300.347C132.209 300.892 132.014 301.43 131.641 301.829C131.268 302.228 130.74 302.448 130.197 302.456L101.558 302.505L101.55 302.496Z" fill="#AABBFF"/>
<path d="M112.17 269.802C120.851 269.802 128.728 270.478 128.728 270.478L130.189 300.444L101.55 300.493L101.493 270.242C104.86 269.916 108.584 269.802 112.17 269.802ZM112.17 265.795C107.975 265.795 104.259 265.95 101.103 266.26C99.0509 266.455 97.4932 268.19 97.4932 270.258L97.55 300.51C97.55 302.725 99.3429 304.508 101.542 304.508L130.181 304.459C131.276 304.459 132.314 304.003 133.069 303.213C133.823 302.415 134.213 301.348 134.164 300.257L132.704 270.29C132.606 268.287 131.049 266.667 129.053 266.496C128.72 266.471 120.907 265.804 112.153 265.804H112.17V265.795Z" fill="black"/>
<path d="M100.812 302.496C100.138 302.496 99.4972 302.236 99.0186 301.755C98.5399 301.275 98.2803 300.631 98.2803 299.955V284.85C98.2884 283.466 99.3674 282.326 100.739 282.269C103.83 282.13 110.166 281.902 117.938 281.902C122.1 281.902 126.197 281.967 130.108 282.098C131.422 282.138 132.469 283.164 132.55 284.483L133.458 299.711C133.499 300.42 133.247 301.12 132.761 301.633C132.274 302.146 131.592 302.447 130.895 302.447L100.812 302.496Z" fill="white"/>
<path d="M117.946 283.906C121.694 283.906 125.791 283.955 130.05 284.101C130.326 284.109 130.545 284.329 130.562 284.606L131.47 299.834C131.486 300.159 131.227 300.453 130.894 300.453L100.811 300.501C100.511 300.501 100.284 300.265 100.284 299.964V284.858C100.292 284.549 100.527 284.288 100.835 284.28C104.178 284.134 110.36 283.914 117.946 283.914M117.946 279.907C110.141 279.907 103.764 280.135 100.657 280.274C98.2149 280.38 96.3002 282.391 96.3002 284.858V299.972C96.284 301.185 96.7545 302.317 97.5983 303.181C98.4502 304.044 99.5941 304.524 100.811 304.524L130.902 304.475C132.152 304.475 133.361 303.946 134.221 303.026C135.081 302.106 135.527 300.86 135.454 299.606L134.545 284.378C134.407 282.017 132.525 280.184 130.172 280.103C126.237 279.973 122.116 279.907 117.938 279.907H117.946Z" fill="black"/>
<path d="M73.8439 335.802C72.8298 335.802 71.986 335.045 71.8643 334.035C69.2519 312.146 87.2872 305.843 93.161 304.377C93.1124 301.438 93.4937 295.615 96.893 291.568C99.0755 288.971 102.077 287.554 105.817 287.342C106.32 287.309 106.807 287.301 107.278 287.301C117.598 287.301 121.768 293.905 122.871 298.604L130.481 298.588C132.574 298.588 134.359 300.176 134.554 302.203L137.515 333.44C137.572 334.002 137.385 334.556 137.004 334.979C136.623 335.403 136.095 335.639 135.527 335.639L73.8358 335.794H73.8439V335.802Z" fill="#53B6F9"/>
<path d="M107.278 289.313C120.316 289.313 121.176 300.615 121.176 300.615L130.49 300.599C131.544 300.599 132.469 301.405 132.567 302.407L135.528 333.644L73.8445 333.799C70.94 309.491 95.2467 305.99 95.2467 305.99C95.2467 305.99 93.4375 290.062 105.923 289.353C106.386 289.329 106.84 289.313 107.278 289.313ZM107.278 285.306C106.767 285.306 106.232 285.323 105.704 285.355C101.453 285.591 97.8834 287.301 95.3684 290.29C92.0907 294.199 91.2956 299.378 91.1739 302.83C88.5534 303.588 84.8214 304.996 81.2111 307.472C75.0858 311.666 68.1491 319.727 69.8853 334.279C70.1287 336.29 71.8324 337.813 73.8526 337.813L135.536 337.659C136.656 337.659 137.727 337.178 138.481 336.339C139.236 335.501 139.609 334.385 139.495 333.269L136.534 302.032C136.242 298.987 133.589 296.601 130.482 296.601H124.356C122.596 291.471 117.752 285.314 107.27 285.314L107.278 285.306Z" fill="black"/>
<path d="M135.528 333.644L134.522 323.001L74.4446 323.139C73.6414 326.136 73.3574 329.654 73.8523 333.807L135.536 333.652H135.528V333.644Z" fill="white"/>
<path d="M97.0072 303.433C97.0072 303.433 96.2202 290.477 109.274 291.78C119.837 292.839 118.069 306.617 118.069 306.617" fill="white"/>
<path d="M130.49 300.599L122.685 300.615L121.411 305.379L132.842 305.355L132.558 302.399C132.461 301.397 131.536 300.591 130.482 300.591H130.49V300.599Z" fill="white"/>
<path d="M119.894 303.872C119.537 303.872 119.18 303.807 118.847 303.669C112.284 301.047 106.508 300.501 102.816 300.501C98.8326 300.501 96.3825 301.12 96.3581 301.128C96.131 301.185 95.8957 301.218 95.6523 301.218C94.5895 301.218 93.6646 300.639 93.2833 299.744C93.0399 299.182 93.0561 298.563 93.3239 298.009C93.6159 297.407 94.1839 296.959 94.8816 296.771C95.2061 296.69 98.1268 295.957 102.735 295.957C108.763 295.957 114.832 297.154 120.77 299.516C121.444 299.784 121.963 300.297 122.198 300.933C122.409 301.503 122.36 302.113 122.076 302.643C121.671 303.4 120.835 303.864 119.894 303.872Z" fill="white"/>
<path d="M102.735 297.162C107.221 297.162 113.371 297.871 120.324 300.64C120.989 300.9 121.297 301.552 121.013 302.081C120.81 302.456 120.364 302.675 119.886 302.675C119.691 302.675 119.488 302.643 119.293 302.561C112.779 299.956 106.986 299.304 102.816 299.304C98.6456 299.304 96.1062 299.956 96.0576 299.972C95.9278 300.004 95.7898 300.021 95.66 300.021C95.1083 300.021 94.581 299.736 94.3944 299.28C94.1591 298.718 94.5161 298.123 95.1976 297.936C95.4247 297.879 98.24 297.162 102.743 297.162M102.743 294.76C97.9804 294.76 94.9217 295.526 94.5891 295.615C93.5506 295.892 92.6988 296.576 92.2525 297.488C91.8307 298.351 91.8063 299.345 92.1876 300.224C92.7556 301.56 94.1185 302.423 95.66 302.423C96.0008 302.423 96.3334 302.382 96.666 302.293C96.6823 302.293 99.0269 301.706 102.824 301.706C106.41 301.706 112.024 302.244 118.417 304.793C118.888 304.98 119.383 305.078 119.894 305.078C121.281 305.078 122.522 304.361 123.139 303.221C123.585 302.39 123.65 301.413 123.334 300.526C122.985 299.573 122.214 298.799 121.224 298.4C115.148 295.982 108.933 294.76 102.751 294.76H102.743Z" fill="black"/>
<path d="M118.709 307.472C118.336 307.472 117.979 307.399 117.638 307.26C112.965 305.33 108.065 304.353 103.067 304.353C98.0698 304.353 95.1978 305.281 95.1653 305.29C94.9138 305.371 94.638 305.412 94.354 305.412C93.3399 305.412 92.4312 304.874 92.0256 304.036C91.7579 303.474 91.7335 302.83 91.9769 302.269C92.2365 301.658 92.7801 301.185 93.4616 300.966C93.851 300.843 97.437 299.769 102.962 299.769C108.487 299.769 114.239 300.892 119.618 303.099C120.291 303.376 120.803 303.897 121.03 304.532C121.233 305.11 121.184 305.721 120.892 306.259C120.478 307.008 119.642 307.472 118.717 307.472H118.709Z" fill="white"/>
<path d="M102.962 300.973C107.351 300.973 113.006 301.682 119.164 304.214C119.829 304.491 120.129 305.143 119.837 305.68C119.626 306.055 119.18 306.275 118.701 306.275C118.498 306.275 118.287 306.234 118.093 306.152C112.405 303.807 107.14 303.156 103.067 303.156C98.086 303.156 94.8732 304.125 94.8164 304.141C94.6623 304.19 94.5081 304.214 94.354 304.214C93.8185 304.214 93.3074 303.946 93.0965 303.514C92.8287 302.952 93.1451 302.333 93.8185 302.122C94.0781 302.04 97.5749 300.973 102.954 300.973M102.954 298.571C97.2585 298.571 93.5102 299.695 93.0965 299.825C92.0823 300.143 91.2629 300.868 90.8654 301.796C90.4841 302.684 90.5084 303.693 90.9303 304.565C91.5388 305.81 92.8774 306.617 94.3378 306.617C94.7353 306.617 95.1328 306.56 95.5141 306.438C95.5223 306.438 98.4997 305.558 103.051 305.558C107.887 305.558 112.641 306.503 117.168 308.376C117.647 308.571 118.158 308.677 118.693 308.677C120.064 308.677 121.305 307.977 121.922 306.845C122.376 306.014 122.458 305.029 122.149 304.133C121.809 303.172 121.054 302.39 120.064 301.983C114.539 299.711 108.787 298.563 102.954 298.563V298.571Z" fill="black"/>
<path d="M79.8721 313.677C80.9917 315.762 88.0419 313.156 97.1042 313.758C106.45 314.385 118.214 318.489 118.125 312.024C118.084 309.271 115.862 306.877 113.063 306.144C109.412 305.184 103.059 304.027 95.157 304.491C95.1814 305.42 95.2463 305.982 95.2463 305.982C95.2463 305.982 86.2165 307.293 79.8721 313.669V313.677Z" fill="white"/>
<path d="M120.478 309.809C120.186 309.809 119.894 309.727 119.634 309.565C118.888 309.092 118.661 308.107 119.131 307.35C123.699 300.037 118.101 293.873 117.858 293.612C117.257 292.969 117.29 291.951 117.931 291.348C118.572 290.746 119.578 290.77 120.186 291.413C122.823 294.207 126.555 301.495 121.841 309.052C121.541 309.54 121.014 309.801 120.486 309.801L120.478 309.809Z" fill="black"/>
<path d="M75.1182 341.16C73.4388 341.16 71.873 340.508 70.6966 339.311C69.5283 338.131 68.8874 336.559 68.9036 334.898L68.928 330.777C68.9442 328.603 70.7291 326.836 72.9033 326.836L126.847 326.82C129.062 322.724 133.053 322.252 134.781 322.252C135.479 322.252 135.942 322.325 136.031 322.341C136.923 322.488 137.605 323.221 137.686 324.124L138.692 334.548C138.854 336.25 138.335 337.862 137.232 339.092C136.12 340.321 134.571 340.997 132.867 341.005L75.1182 341.16Z" fill="white"/>
<path d="M134.781 324.263C135.341 324.263 135.698 324.32 135.698 324.32L136.704 334.743C136.931 337.08 135.211 338.994 132.858 339.002L75.126 339.156C72.7732 339.156 70.8828 337.251 70.8991 334.914L70.9234 330.793C70.9234 329.719 71.8158 328.839 72.903 328.839L128.12 328.823C129.662 324.768 133.126 324.255 134.781 324.255M134.781 320.248C130.984 320.248 127.771 321.917 125.743 324.816L72.903 324.833C69.6334 324.833 66.948 327.496 66.9318 330.761L66.9075 334.881C66.8912 337.088 67.735 339.156 69.2846 340.72C70.8423 342.292 72.9111 343.155 75.126 343.155L132.883 343C135.122 343 137.248 342.055 138.716 340.427C140.184 338.798 140.906 336.583 140.687 334.344L139.681 323.921C139.511 322.113 138.148 320.655 136.363 320.354C136.201 320.33 135.617 320.24 134.789 320.24L134.781 320.248Z" fill="black"/>
<path d="M136.436 338.66C136.039 338.872 135.576 338.994 135.073 339.002L72.4245 339.173C72.0107 339.173 71.6213 339.091 71.2725 338.945C74.7935 338.806 74.972 337.373 78.8014 337.365C82.8092 337.357 82.8254 338.929 86.8414 338.912C90.8492 338.904 90.8168 337.333 94.8165 337.324C98.8162 337.316 98.873 338.888 102.889 338.872C106.905 338.855 106.824 337.292 110.815 337.284C114.815 337.276 114.912 338.839 118.912 338.831C122.92 338.823 122.798 337.251 126.798 337.243C130.79 337.235 130.928 338.798 134.927 338.79C135.512 338.79 136.006 338.741 136.445 338.668H136.436V338.66Z" fill="black"/>
<path d="M81.9326 311.389C81.4214 311.389 80.9184 311.193 80.529 310.81C79.7501 310.037 79.7339 308.791 80.4965 308.001C80.7643 307.732 87.1573 301.315 104.657 301.999C114.141 302.374 121.8 306.723 122.125 306.902C123.082 307.455 123.415 308.677 122.863 309.638C122.319 310.599 121.094 310.933 120.137 310.379C120.072 310.338 112.973 306.332 104.503 305.998C89.0071 305.395 83.401 310.745 83.3442 310.794C82.9548 311.177 82.4437 311.372 81.9326 311.372V311.389Z" fill="black"/>
<path d="M149.936 304.972C148.963 304.972 148.127 304.264 147.965 303.294L142.18 268.01C142.01 266.984 142.659 265.991 143.665 265.738C144.371 265.559 161.051 261.422 174.154 261.414C175.136 261.414 175.971 262.131 176.125 263.1L182.445 302.431C182.535 303.009 182.372 303.596 181.999 304.044C181.626 304.492 181.074 304.752 180.49 304.752L149.936 304.972Z" fill="#AABBFF"/>
<path d="M174.154 263.418L180.474 302.749L149.928 302.969L144.144 267.685C144.144 267.685 161.14 263.426 174.146 263.418M174.146 259.411C160.808 259.419 143.892 263.621 143.178 263.8C141.158 264.305 139.868 266.284 140.201 268.344L145.985 303.628C146.302 305.567 147.973 306.983 149.928 306.983H149.961L180.506 306.764C181.674 306.755 182.778 306.234 183.524 305.347C184.279 304.451 184.603 303.278 184.417 302.122L178.097 262.791C177.788 260.844 176.117 259.419 174.154 259.419L174.146 259.411Z" fill="black"/>
<path d="M149.985 305.517C148.63 305.517 147.478 304.54 147.243 303.205L143.738 282.79C143.478 281.275 144.484 279.785 145.993 279.476C152.224 278.189 164.443 276.023 176.288 275.868C177.683 275.868 178.843 276.854 179.07 278.205L183.046 301.934C183.184 302.765 182.956 303.612 182.413 304.255C181.869 304.907 181.082 305.281 180.239 305.289C180.239 305.289 149.993 305.509 149.985 305.509V305.517Z" fill="white"/>
<path d="M176.319 277.879C176.709 277.879 177.033 278.156 177.098 278.547L181.074 302.276C181.163 302.797 180.749 303.294 180.222 303.294L149.993 303.514C149.603 303.514 149.287 303.245 149.222 302.863L145.717 282.456C145.636 282 145.944 281.544 146.407 281.446C152.07 280.282 164.458 278.034 176.328 277.879H176.336M176.336 273.873H176.271C164.264 274.02 151.899 276.218 145.604 277.521C143.056 278.042 141.344 280.567 141.782 283.14L145.287 303.547C145.685 305.851 147.664 307.529 149.993 307.529L180.262 307.309C181.682 307.301 183.029 306.657 183.946 305.558C184.863 304.459 185.26 303.017 185.025 301.617L181.049 277.888C180.66 275.567 178.68 273.881 176.336 273.881V273.873Z" fill="black"/>
<path d="M149.133 335.655C148.078 335.655 147.21 334.833 147.137 333.774L145.109 301.568C145.019 300.542 145.36 299.516 146.074 298.726C146.796 297.928 147.843 297.472 148.946 297.464L157.489 297.366C157.684 295.224 158.414 291.869 160.921 289.117C163.615 286.161 167.606 284.663 172.79 284.663C173.22 284.663 173.667 284.671 174.129 284.695C185.317 285.225 189.171 295.794 189.868 302.789H190.582C195.028 302.789 203.36 303.742 209.267 310.143C214.199 315.484 216.301 323.391 215.522 333.652C215.441 334.694 214.581 335.5 213.534 335.5L149.133 335.655Z" fill="#53B6F9"/>
<path d="M172.791 286.682C173.197 286.682 173.61 286.69 174.032 286.715C187.8 287.366 187.987 304.939 187.987 304.939C187.987 304.939 188.976 304.809 190.575 304.809C197.446 304.809 215.514 307.276 213.526 333.513L149.133 333.668L147.105 301.462C147.008 300.379 147.843 299.5 148.971 299.491L159.445 299.377C159.445 299.377 158.325 286.699 172.791 286.699M172.791 282.692C167.031 282.692 162.536 284.41 159.453 287.798C157.198 290.273 156.183 293.115 155.745 295.412L148.922 295.485C147.275 295.493 145.693 296.193 144.598 297.407C143.535 298.579 143 300.159 143.121 301.755L145.15 333.929C145.28 336.038 147.032 337.683 149.133 337.683H149.141L213.535 337.528C215.62 337.528 217.348 335.908 217.51 333.823C218.329 322.984 216.05 314.564 210.727 308.799C204.748 302.317 196.562 300.973 191.621 300.819C190.396 293.246 185.829 283.262 174.227 282.717C173.74 282.692 173.261 282.684 172.791 282.684V282.692Z" fill="black"/>
<path d="M148.906 330.061L149.263 333.652L213.527 333.497C213.843 329.353 213.648 325.81 213.08 322.765L148.46 323.017L148.906 330.053V330.061Z" fill="white"/>
<path d="M185.755 302.187C185.755 302.187 184.806 287.863 170.77 289.476C159.493 290.77 163.785 305.795 163.785 305.795" fill="white"/>
<path d="M148.964 299.475L157.831 299.369L160.03 304.508L147.373 304.63L147.098 301.454C147 300.371 147.836 299.492 148.964 299.483V299.475Z" fill="white"/>
<path d="M161.165 302.781C160.248 302.781 159.372 302.342 158.885 301.633C158.495 301.071 158.374 300.387 158.552 299.752C158.731 299.101 159.217 298.563 159.875 298.27C167.509 294.891 174.543 294.182 179.094 294.182C183.646 294.182 186.923 294.923 187.256 295.005C187.994 295.192 188.611 295.648 188.952 296.259C189.26 296.796 189.333 297.407 189.163 297.985C188.862 298.995 187.889 299.671 186.729 299.671C186.493 299.671 186.25 299.638 186.023 299.581C185.99 299.581 183.402 298.946 179.289 298.946C175.176 298.946 169.018 299.573 162.284 302.553C161.952 302.7 161.578 302.781 161.197 302.781H161.165Z" fill="white"/>
<path d="M179.087 295.387C183.719 295.387 186.713 296.112 186.964 296.177C187.727 296.373 188.197 297.024 188.011 297.643C187.865 298.148 187.329 298.465 186.729 298.465C186.591 298.465 186.445 298.449 186.307 298.416C186.25 298.4 183.549 297.749 179.281 297.749C174.778 297.749 168.523 298.482 161.789 301.454C161.595 301.543 161.384 301.584 161.173 301.584H161.165C160.654 301.584 160.143 301.356 159.867 300.949C159.469 300.379 159.688 299.671 160.353 299.377C167.558 296.185 174.227 295.387 179.095 295.387M179.095 292.985C174.422 292.985 167.217 293.71 159.388 297.179C158.406 297.61 157.676 298.433 157.4 299.434C157.124 300.412 157.311 301.47 157.903 302.325C158.625 303.367 159.85 303.986 161.165 303.986C161.749 303.986 162.276 303.872 162.763 303.653C169.302 300.762 175.354 300.151 179.281 300.151C183.208 300.151 185.707 300.745 185.731 300.754C186.056 300.835 186.388 300.876 186.721 300.876C188.416 300.876 189.852 299.85 190.299 298.327C190.558 297.439 190.445 296.495 189.982 295.672C189.471 294.776 188.587 294.117 187.54 293.848C187.183 293.759 183.954 292.993 179.078 292.993H179.095V292.985Z" fill="black"/>
<path d="M163.039 306.641C162.122 306.641 161.278 306.218 160.775 305.518C160.377 304.956 160.248 304.272 160.418 303.637C160.596 302.985 161.067 302.44 161.716 302.146C167.233 299.638 173.172 298.368 179.37 298.368C185.074 298.368 188.919 299.467 189.333 299.589C190.055 299.801 190.647 300.29 190.964 300.909C191.239 301.462 191.28 302.081 191.077 302.651C190.736 303.588 189.779 304.215 188.684 304.215C188.408 304.215 188.124 304.174 187.856 304.093C187.832 304.093 184.481 303.14 179.549 303.14C174.113 303.14 168.937 304.239 164.174 306.397C163.834 306.552 163.444 306.633 163.055 306.641H163.039Z" fill="white"/>
<path d="M179.37 299.565C184.944 299.565 188.708 300.648 188.992 300.737C189.739 300.957 190.169 301.633 189.95 302.244C189.779 302.716 189.26 303.009 188.684 303.009C188.522 303.009 188.36 302.985 188.197 302.936C188.132 302.92 184.692 301.934 179.549 301.934C175.152 301.934 169.513 302.651 163.68 305.306C163.485 305.395 163.266 305.436 163.047 305.444H163.039C162.536 305.444 162.033 305.216 161.749 304.817C161.343 304.247 161.546 303.539 162.211 303.237C168.548 300.355 174.616 299.565 179.37 299.565ZM179.37 297.163C173.002 297.163 166.892 298.474 161.221 301.047C160.248 301.487 159.526 302.317 159.258 303.319C158.99 304.304 159.185 305.355 159.794 306.21C160.524 307.236 161.733 307.846 163.039 307.846C163.631 307.846 164.175 307.724 164.669 307.496C169.27 305.403 174.275 304.345 179.541 304.345C184.287 304.345 187.5 305.241 187.532 305.249C187.897 305.355 188.287 305.412 188.676 305.412C190.274 305.412 191.686 304.467 192.197 303.058C192.513 302.171 192.457 301.218 192.027 300.363C191.564 299.443 190.704 298.742 189.666 298.433C189.228 298.303 185.228 297.163 179.362 297.163H179.37Z" fill="black"/>
<path d="M187.987 304.931C187.987 304.931 187.979 304.166 187.841 302.961C181.367 303.238 176.263 304.125 172.994 304.891C169.538 305.697 167.177 308.262 167.72 311.169C168.978 317.895 183.135 313.547 194.996 312.822C200.375 312.496 205.292 312.895 209.129 313.205C201.738 303.115 187.979 304.939 187.979 304.939L187.987 304.931Z" fill="white"/>
<path d="M161.506 309.117C161.035 309.117 160.565 308.905 160.248 308.506C152.419 298.547 158.975 289.54 159.04 289.451C159.567 288.742 160.573 288.596 161.279 289.133C161.985 289.663 162.131 290.664 161.603 291.373C161.392 291.666 156.492 298.547 162.763 306.527C163.307 307.219 163.193 308.229 162.496 308.783C162.204 309.019 161.855 309.125 161.506 309.125V309.117Z" fill="black"/>
<path d="M152.785 340.875C149.361 340.875 146.448 338.261 146.156 334.914L145.248 324.54C145.158 323.497 145.881 322.561 146.911 322.39C147.008 322.374 147.552 322.292 148.379 322.292C150.213 322.292 154.57 322.756 157.442 326.804L214.046 326.543C216.229 326.543 218.078 328.196 218.273 330.305L218.654 334.401C218.809 336.054 218.289 337.626 217.202 338.823C216.083 340.061 214.436 340.769 212.691 340.769L152.785 340.867V340.875Z" fill="white"/>
<path d="M148.379 324.296C150.277 324.296 154.098 324.833 156.346 328.815L214.054 328.554H214.062C215.19 328.554 216.179 329.426 216.285 330.501L216.666 334.597C216.877 336.901 215.1 338.774 212.691 338.782L152.784 338.88C150.423 338.88 148.346 337.031 148.143 334.751L147.235 324.377C147.235 324.377 147.673 324.304 148.379 324.304M148.379 320.297C147.421 320.297 146.756 320.395 146.578 320.428C144.517 320.77 143.073 322.643 143.259 324.727L144.168 335.102C144.549 339.466 148.33 342.895 152.784 342.895L212.699 342.797C215.003 342.797 217.185 341.844 218.678 340.191C220.155 338.562 220.852 336.445 220.642 334.23L220.26 330.134C219.968 327.007 217.25 324.548 214.062 324.548L158.406 324.8C155.973 321.91 152.427 320.289 148.379 320.289V320.297Z" fill="black"/>
<path d="M149.125 338.554C149.563 338.758 150.05 338.88 150.561 338.88L215.465 338.782C215.887 338.782 216.277 338.701 216.625 338.563C213.007 338.44 212.699 337.04 208.772 337.048C204.667 337.048 204.813 338.587 200.716 338.595C196.627 338.595 196.489 337.064 192.4 337.072C188.319 337.072 188.457 338.611 184.384 338.611C180.312 338.611 180.182 337.089 176.117 337.089C172.052 337.089 172.198 338.62 168.142 338.628C164.094 338.628 163.185 337.105 159.145 337.113C155.112 337.113 154.715 338.685 150.683 338.685C150.09 338.685 149.587 338.636 149.133 338.571V338.554H149.125Z" fill="black"/>
<path d="M160.88 309.988C160.142 309.988 159.428 309.573 159.087 308.864C158.609 307.871 159.014 306.674 160.004 306.185C160.386 305.998 169.415 301.625 179.362 301.145C198.265 299.833 203.839 303.701 204.415 304.149C205.283 304.825 205.445 306.087 204.772 306.959C204.107 307.822 202.882 307.993 202.005 307.341C201.835 307.227 196.699 303.954 179.589 305.135C170.438 305.574 161.83 309.736 161.749 309.776C161.465 309.915 161.172 309.98 160.872 309.98L160.88 309.988Z" fill="black"/>
<path d="M136.501 267.782L135.406 255.364L127.455 255.511" fill="#FF9566"/>
<path d="M136.501 269.785C135.479 269.785 134.611 269.004 134.513 267.961L133.58 257.408L127.487 257.522C126.36 257.522 125.475 256.659 125.459 255.551C125.443 254.444 126.319 253.532 127.414 253.515L135.365 253.369H135.406C136.436 253.369 137.304 254.159 137.393 255.193L138.489 267.611C138.586 268.71 137.775 269.688 136.68 269.785C136.623 269.785 136.558 269.785 136.501 269.785Z" fill="black"/>
<path d="M84.1321 243.385C82.5987 243.385 81.2844 242.237 81.0816 240.714L80.3352 235.144C80.2135 234.232 80.7246 233.361 81.5684 233.019C82.1201 232.799 95.4092 227.555 122.272 227.555C141.418 227.555 162.537 230.218 185.042 235.478C186.097 235.723 186.77 236.773 186.543 237.84C186.348 238.784 185.521 239.428 184.588 239.436C184.466 239.436 184.344 239.428 184.215 239.403C184.06 239.371 168.37 236.464 145.191 236.464C124.235 236.464 103.928 238.768 84.8461 243.304C84.6108 243.361 84.3755 243.385 84.1321 243.385Z" fill="white"/>
<path d="M122.263 229.558C138.189 229.558 158.926 231.439 184.579 237.433C184.579 237.433 168.856 234.461 145.182 234.461C128.088 234.461 106.84 236.016 84.3832 241.358C84.3021 241.374 84.2128 241.39 84.1317 241.39C83.6043 241.39 83.1338 241.008 83.0608 240.454L82.3144 234.884C82.3144 234.884 95.4899 229.567 122.271 229.567M122.271 225.56C95.0275 225.56 81.3895 230.935 80.8216 231.163C79.1259 231.847 78.1118 233.597 78.3552 235.421L79.1016 240.991C79.4424 243.508 81.6004 245.397 84.1317 245.397C84.5292 245.397 84.9187 245.348 85.3081 245.258C104.236 240.755 124.389 238.467 145.19 238.467C168.158 238.467 183.695 241.342 183.849 241.374C184.101 241.423 184.344 241.447 184.587 241.447C186.437 241.447 188.1 240.144 188.49 238.263C188.936 236.13 187.605 234.029 185.488 233.532C162.836 228.239 141.564 225.552 122.271 225.552V225.56Z" fill="black"/>
<path d="M74.7861 235.055C74.7861 235.055 63.8091 225.486 77.7067 199.347C77.7798 199.209 77.8366 199.054 77.869 198.899L83.6942 169.413C84.0674 167.507 86.842 167.695 86.9556 169.633L88.2212 190.984C88.2456 191.367 88.1401 191.733 87.9129 192.043C85.0815 195.951 68.4903 223.573 81.9336 234.346" fill="black"/>
<path d="M136.793 151.042C124.997 151.042 113.306 148.07 112.511 147.866C111.44 147.589 110.799 146.498 111.075 145.423C111.351 144.348 112.438 143.705 113.509 143.982C113.582 143.998 121.265 145.969 130.205 146.734C141.685 147.711 150.017 146.319 154.309 142.687C155.153 141.979 156.41 142.084 157.124 142.931C157.838 143.778 157.725 145.04 156.881 145.757C152.094 149.796 144.427 151.042 136.793 151.042Z" fill="black"/>
<path d="M73.6084 153.013C73.1622 153.013 72.716 152.866 72.3428 152.557C71.4909 151.856 71.3611 150.594 72.0588 149.739C72.2454 149.511 76.6102 144.177 80.9751 140.676C81.835 139.984 83.0926 140.122 83.7822 140.993C84.4718 141.857 84.3338 143.119 83.4658 143.811C79.4255 147.052 75.1905 152.231 75.1499 152.288C74.7524 152.776 74.1844 153.021 73.6003 153.021L73.6084 153.013Z" fill="black"/>
<path d="M122.912 133.184C103.886 133.184 87.4089 128.787 75.2474 120.473C61.9583 111.385 54.1616 97.7127 52.6851 80.9378C51.0462 62.2575 57.5529 44.3914 70.9962 30.6132C84.1555 17.1364 102.767 8.7082 123.398 6.88414C126.141 6.63985 128.907 6.5177 131.625 6.5177C171.574 6.5177 202.817 32.1197 205.916 67.3877C207.539 85.8726 201.024 101.801 187.069 113.462C174.332 124.105 156.134 130.741 134.432 132.663C130.538 133.005 126.66 133.184 122.903 133.184H122.912Z" fill="#AABBFF"/>
<path d="M131.641 8.52916C169.374 8.52916 200.845 32.2664 203.936 67.5751C207.254 105.367 175.484 127.028 134.269 130.676C130.424 131.018 126.635 131.189 122.919 131.189C86.7919 131.189 57.6904 115.033 54.6886 80.7751C51.3703 42.9828 82.3703 12.5356 123.584 8.89561C126.294 8.65946 128.988 8.53731 131.641 8.53731M131.641 4.53088C128.858 4.53088 126.035 4.65303 123.236 4.90547C102.134 6.77025 83.0761 15.4101 69.5841 29.229C55.7189 43.4307 49.0176 61.8586 50.7051 81.1334C52.2303 98.5271 60.3353 112.712 74.1274 122.15C86.6134 130.693 103.48 135.204 122.911 135.204C126.724 135.204 130.667 135.025 134.61 134.675C156.718 132.72 175.297 125.921 188.351 115.017C202.825 102.916 209.591 86.3939 207.911 67.233C204.723 30.8984 172.644 4.53088 131.641 4.53088Z" fill="black"/>
<path d="M108.316 11.3139C108.316 11.3139 109.915 4.54692 114.872 2.98344C119.829 1.41995 125.029 9.83182 125.029 9.83182" fill="#AABBFF"/>
<path d="M108.317 13.3172C108.163 13.3172 108.009 13.3009 107.854 13.2602C106.783 12.9996 106.126 11.9247 106.378 10.8498C106.451 10.5241 108.309 2.95094 114.28 1.06988C120.535 -0.908907 126.117 7.77982 126.733 8.77328C127.318 9.70975 127.026 10.9475 126.093 11.5338C125.16 12.1201 123.926 11.827 123.342 10.8905C121.906 8.57785 118.093 4.07469 115.481 4.89715C111.684 6.09419 110.28 11.7292 110.264 11.7862C110.045 12.7064 109.225 13.3172 108.325 13.3172H108.317Z" fill="black"/>
<path d="M124.535 9.76695C124.535 9.76695 127.058 3.00815 132.178 2.07169C137.305 1.13523 141.289 10.4998 141.289 10.4998" fill="#AABBFF"/>
<path d="M141.288 12.5029C140.509 12.5029 139.779 12.0469 139.454 11.2895C138.351 8.71632 135.211 3.55357 132.534 4.04216C129.272 4.6366 127.001 8.88732 126.4 10.4752C126.011 11.5094 124.859 12.0306 123.828 11.6397C122.798 11.2488 122.279 10.1006 122.66 9.06647C122.782 8.74889 125.654 1.23277 131.812 0.100877C138.318 -1.08802 142.643 8.60231 143.113 9.70978C143.543 10.7277 143.073 11.9003 142.058 12.34C141.799 12.4459 141.539 12.5029 141.28 12.5029H141.288Z" fill="black"/>
<path d="M98.5889 15.5484C98.5889 15.5484 100.106 9.99477 104.649 8.67559C109.193 7.3564 113.866 14.2048 113.866 14.2048" fill="#AABBFF"/>
<path d="M98.5894 17.5516C98.4109 17.5516 98.2405 17.5272 98.062 17.4783C96.9992 17.1851 96.3745 16.0858 96.6666 15.0191C96.7396 14.7503 98.5407 8.36613 104.098 6.75379C109.858 5.08444 114.953 12.2504 115.513 13.0729C116.138 13.9849 115.903 15.2308 114.994 15.8578C114.085 16.4848 112.844 16.2487 112.219 15.3367C110.954 13.4963 107.579 9.90518 105.201 10.5973C101.826 11.5745 100.52 16.0288 100.512 16.0777C100.269 16.9653 99.4656 17.5516 98.5894 17.5516Z" fill="black"/>
<path d="M130.83 14.433C130.83 14.433 132.793 8.83866 138.359 7.4299C143.925 6.02114 149.506 12.7881 149.506 12.7881" fill="#AABBFF"/>
<path d="M130.83 16.436C130.611 16.436 130.384 16.4034 130.165 16.322C129.126 15.9555 128.583 14.8073 128.948 13.765C129.045 13.4963 131.341 7.1365 137.872 5.48345C144.581 3.78153 150.788 11.1918 151.048 11.5094C151.753 12.3644 151.632 13.6266 150.78 14.3269C149.928 15.0353 148.67 14.9132 147.973 14.0582C146.634 12.454 142.391 8.47198 138.854 9.36772C134.375 10.4996 132.736 15.0516 132.72 15.0923C132.428 15.9148 131.657 16.4278 130.838 16.4278L130.83 16.436Z" fill="black"/>
<path d="M109.168 21.037C109.168 21.037 111.423 11.648 119.22 10.7767C127.017 9.90536 131.244 19.0908 131.244 19.0908" fill="#AABBFF"/>
<path d="M109.169 23.0403C109.014 23.0403 108.852 23.024 108.698 22.9833C107.627 22.7227 106.97 21.6397 107.23 20.5729C107.335 20.1332 109.915 9.80771 119.002 8.78982C128.112 7.76378 132.859 17.8287 133.061 18.2521C133.524 19.2538 133.086 20.4508 132.088 20.915C131.09 21.3791 129.897 20.9394 129.443 19.9378C129.411 19.8645 125.711 12.0796 119.456 12.7718C113.168 13.4721 111.14 21.4361 111.124 21.5175C110.897 22.4296 110.085 23.0403 109.185 23.0403H109.169Z" fill="black"/>
<path d="M130.839 108.022C127.618 108.022 124.568 107.093 122.296 105.4C121.412 104.74 121.225 103.486 121.882 102.598C122.539 101.711 123.789 101.524 124.673 102.183C126.49 103.543 129.216 104.203 131.975 103.958C134.717 103.714 137.2 102.639 138.782 101.002C139.552 100.213 140.81 100.196 141.605 100.97C142.392 101.743 142.408 103.014 141.637 103.804C139.39 106.116 135.999 107.631 132.316 107.948C131.821 107.989 131.318 108.014 130.831 108.014L130.839 108.022Z" fill="black"/>
<path d="M143.787 84.4637C146.856 84.4637 149.344 81.9663 149.344 78.8857C149.344 75.805 146.856 73.3076 143.787 73.3076C140.718 73.3076 138.229 75.805 138.229 78.8857C138.229 81.9663 140.718 84.4637 143.787 84.4637Z" fill="black"/>
<path d="M113.468 89.9847C112.901 89.9847 112.341 89.7485 111.943 89.2762C111.229 88.4293 111.335 87.1671 112.17 86.4506L115.91 83.2584L110.629 80.6689C109.639 80.1803 109.225 78.9833 109.712 77.9898C110.199 76.9964 111.391 76.5811 112.381 77.0697L120.405 81.0028C121.014 81.2959 121.427 81.8823 121.508 82.55C121.59 83.2177 121.33 83.8855 120.819 84.3252L114.758 89.4961C114.385 89.8137 113.923 89.9765 113.468 89.9765V89.9847Z" fill="black"/>
<path d="M233.914 75.9949C230.904 75.9949 227.724 75.6529 224.454 74.9852C212.277 72.4934 208.65 64.9773 207.717 62.2575C204.35 60.4253 198.346 56.1745 199.166 49.5135C199.653 45.564 202.557 43.2921 207.125 43.2921C208.666 43.2921 210.208 43.5364 211.481 43.8295C211.003 38.6994 210.548 28.7892 213.631 24.7339C214.532 23.5531 215.708 22.8365 217.039 22.6655C217.388 22.6167 217.737 22.6004 218.069 22.6004C223.091 22.6004 225.768 27.2338 227.18 31.7696C229.208 26.5172 232.543 20.8496 237.532 20.8496C238.319 20.8496 239.123 20.9962 239.91 21.2893C244.112 22.8528 244.858 30.1491 244.688 36.3297C246.944 33.7972 249.945 31.5171 253.458 31.5171C254.529 31.5171 255.584 31.7288 256.614 32.1604C257.929 32.706 258.878 33.7402 259.356 35.149C261.044 40.1 256.282 49.2936 254.732 52.0785C254.732 53.7316 254.545 58.5523 252.785 63.2672C250.018 70.653 243.268 75.6285 235.569 75.9542C235.034 75.9787 234.482 75.9868 233.906 75.9868L233.914 75.9949Z" fill="#AABBFF"/>
<path d="M237.54 22.8529C238.084 22.8529 238.644 22.9506 239.228 23.1705C244.631 25.1737 242.068 43.8703 242.068 43.8703C242.068 43.8703 247.025 33.5204 253.466 33.5204C254.245 33.5204 255.04 33.6751 255.852 34.009C261.45 36.3298 252.736 51.5575 252.736 51.5575C252.736 51.5575 252.939 57.1762 250.919 62.5589C248.477 69.0896 242.433 73.6579 235.488 73.9511C234.977 73.9755 234.449 73.9837 233.906 73.9837C231.31 73.9837 228.292 73.7231 224.844 73.0146C211.311 70.246 209.388 60.8732 209.388 60.8732C206.622 59.4889 200.415 55.6942 201.145 49.7578C201.575 46.24 204.309 45.2954 207.125 45.2954C210.41 45.2954 213.802 46.582 213.802 46.582C213.802 46.582 210.889 25.4913 217.298 24.6525C217.566 24.62 217.826 24.6037 218.077 24.6037C225.76 24.6037 226.742 40.3688 226.742 40.3688C226.742 40.3688 230.385 22.8529 237.54 22.8529ZM237.54 18.8465C233.541 18.8465 230.101 21.5337 227.269 26.8512C225.387 23.3822 222.499 20.5973 218.069 20.5973C217.647 20.5973 217.209 20.6298 216.779 20.6787C214.905 20.923 213.266 21.9083 212.041 23.5206C209.023 27.4945 208.885 35.5643 209.267 41.4193C208.569 41.3378 207.847 41.289 207.117 41.289C201.51 41.289 197.787 44.2694 197.178 49.2611C196.488 54.8229 199.734 60.0019 206.119 63.6582C207.563 67.2004 211.936 74.4641 224.048 76.9396C227.448 77.6318 230.766 77.9901 233.906 77.9901C234.49 77.9901 235.082 77.9738 235.658 77.9494C244.153 77.5911 251.608 72.0945 254.659 63.9595C256.371 59.3912 256.679 54.7333 256.728 52.5917C258.789 48.8132 263.097 39.9128 261.255 34.4813C260.598 32.5432 259.219 31.053 257.385 30.2876C256.119 29.7583 254.797 29.4977 253.466 29.4977C250.903 29.4977 248.59 30.483 246.603 31.9081C246.351 26.8756 245.224 21.1021 240.607 19.3921C239.601 19.0175 238.563 18.8302 237.54 18.8302V18.8465Z" fill="black"/>
<path d="M210.33 43.3409C210.33 43.3409 215.352 44.8881 217.494 46.6471L229.306 47.4695" fill="#AABBFF"/>
<path d="M229.306 49.4728C229.257 49.4728 229.208 49.4728 229.168 49.4728L217.355 48.6503C216.942 48.6177 216.552 48.463 216.228 48.2024C214.727 46.9728 210.946 45.6292 209.745 45.2628C208.691 44.9371 208.098 43.8214 208.423 42.7628C208.747 41.7042 209.867 41.1098 210.914 41.4355C211.425 41.5902 215.708 42.942 218.215 44.7009L229.444 45.4826C230.547 45.5559 231.375 46.5168 231.293 47.6161C231.22 48.6748 230.344 49.4809 229.306 49.4809V49.4728Z" fill="black"/>
<path d="M198.412 72.7376L199.897 64.9202C200.116 63.7639 200.935 62.8193 202.039 62.4203C206.241 60.9057 217.51 57.909 232.982 62.1353C248.348 66.329 253.735 73.0227 255.382 75.8157C255.82 76.5568 255.95 77.4281 255.755 78.2668L253.053 89.7731" fill="white"/>
<path d="M253.053 91.7762C252.899 91.7762 252.745 91.7599 252.591 91.7192C251.52 91.4668 250.855 90.3838 251.106 89.3089L253.808 77.8026C253.881 77.4687 253.832 77.1267 253.662 76.8336C252.185 74.3336 247.171 68.0797 232.454 64.0651C217.518 59.9854 206.679 62.8681 202.712 64.3013C202.274 64.4641 201.941 64.8387 201.86 65.2947L200.375 73.1122C200.172 74.2033 199.126 74.9118 198.039 74.7082C196.96 74.5046 196.246 73.4542 196.449 72.363L197.933 64.5456C198.282 62.7134 199.596 61.1743 201.357 60.5391C205.681 58.9757 217.469 55.8243 233.501 60.2053C249.621 64.6026 255.374 71.8744 257.093 74.7978C257.791 75.9785 258.002 77.371 257.694 78.7228L254.992 90.2372C254.773 91.1574 253.954 91.7844 253.053 91.7844V91.7762Z" fill="black"/>
<path d="M170.122 174.34C170.122 174.34 233.687 173.469 249.216 105.017C249.216 105.017 254.302 100.913 256.104 92.257C257.134 87.3141 255.333 82.1514 251.544 78.829C247.277 75.0994 240.105 70.4334 229.144 67.8683C208.813 63.1127 191.824 65.5475 194.29 84.3337C194.29 84.3337 190.299 117.818 164.889 126.141" fill="#53B6F9"/>
<path d="M170.121 176.343C169.034 176.343 168.142 175.464 168.126 174.372C168.109 173.265 168.994 172.361 170.089 172.337C170.243 172.337 185.869 172.003 203.109 163.477C226.126 152.101 240.981 132.281 247.26 104.569C247.358 104.13 247.601 103.739 247.958 103.454C247.998 103.421 252.526 99.6185 254.14 91.8418C255.016 87.6318 253.515 83.2182 250.221 80.3355C246.319 76.9235 239.407 72.3308 228.681 69.8146C214.767 66.5573 204.423 67.2088 199.547 71.6468C196.627 74.3014 195.523 78.4789 196.253 84.0651C196.278 84.2279 196.278 84.3989 196.253 84.5618C196.083 85.9787 191.808 119.414 165.489 128.038C164.442 128.38 163.315 127.802 162.974 126.751C162.633 125.701 163.201 124.569 164.256 124.227C187.061 116.76 191.84 87.2409 192.262 84.3175C191.418 77.4854 192.968 72.2249 196.862 68.6745C204.391 61.8262 218.808 63.3896 229.582 65.9059C241.11 68.6012 248.591 73.593 252.842 77.3063C257.223 81.1498 259.219 87.0292 258.042 92.6561C256.452 100.286 252.477 104.667 251 106.076C242.701 141.784 221.274 158.99 204.707 167.141C186.68 176.009 170.803 176.327 170.13 176.335H170.105L170.121 176.343Z" fill="black"/>
<path d="M163.632 165.138L179.282 161.97L181.951 179.511L168.118 184.869" fill="#53B6F9"/>
<path d="M161.157 174.56C157.888 174.918 154.618 175.276 151.348 175.626C150.058 175.765 149.069 174.861 149.061 173.525C149.061 173.208 149.134 172.874 149.255 172.589C151.949 166.123 154.642 159.666 157.352 153.216C157.969 151.743 159.648 151.572 160.549 152.883C164.5 158.664 168.443 164.446 172.386 170.227C173.319 171.595 172.613 173.306 171.047 173.485C167.753 173.851 164.459 174.201 161.165 174.56H161.157ZM162.269 164.592C162.058 164.592 161.92 164.584 161.79 164.592C159.137 164.877 156.484 165.171 153.831 165.456C153.588 165.48 153.45 165.57 153.352 165.814C152.363 168.216 151.348 170.61 150.351 173.012C149.994 173.867 150.415 174.478 151.284 174.389C153.596 174.136 155.908 173.884 158.228 173.639C158.496 173.615 158.642 173.517 158.756 173.24C159.859 170.504 160.987 167.785 162.098 165.057C162.147 164.934 162.187 164.812 162.26 164.601H162.269V164.592ZM157.247 161.775C157.32 161.563 157.36 161.408 157.417 161.27C158.228 159.324 158.999 157.361 159.867 155.448C160.192 154.731 160.143 154.242 159.656 153.664C159.178 153.086 158.666 153.111 158.374 153.819C156.987 157.141 155.6 160.464 154.22 163.786C154.172 163.908 154.147 164.055 154.107 164.21L165.855 162.931C165.79 162.793 165.765 162.711 165.717 162.638C164.216 160.423 162.707 158.2 161.198 155.993C160.995 155.692 160.906 155.708 160.768 156.05C160.2 157.402 159.632 158.754 159.072 160.106C159.023 160.22 159.015 160.35 158.975 160.529C159.705 160.448 160.37 160.382 161.035 160.293C161.117 160.285 161.173 160.122 161.254 160.065C161.327 160.016 161.482 159.959 161.506 159.992C161.782 160.366 162.05 160.757 162.366 161.221L157.247 161.775ZM159.916 173.42C160.062 173.42 160.127 173.428 160.192 173.42C163.778 173.029 167.355 172.646 170.941 172.247C171.582 172.174 171.834 171.53 171.453 170.96C171.096 170.415 170.674 169.91 170.365 169.332C169.992 168.64 169.53 168.371 168.791 168.574C168.378 168.688 167.923 168.68 167.396 168.737L168.313 170.211L163.226 170.765C163.299 170.553 163.348 170.423 163.396 170.293C163.834 169.201 164.281 168.118 164.719 167.027C165.019 166.286 165.603 166.221 166.057 166.872C166.171 167.035 166.301 167.19 166.398 167.361C166.536 167.605 166.706 167.687 166.966 167.646C167.477 167.573 167.996 167.532 168.507 167.467C168.637 167.451 168.759 167.41 168.913 167.369C168.864 167.255 168.856 167.182 168.816 167.133C168.151 166.164 167.493 165.195 166.812 164.242C166.739 164.136 166.528 164.088 166.382 164.096C165.538 164.169 164.694 164.283 163.851 164.356C163.599 164.381 163.477 164.503 163.388 164.739C162.277 167.483 161.149 170.219 160.029 172.955C159.981 173.086 159.956 173.224 159.908 173.411L159.916 173.42Z" fill="white"/>
<path d="M153.068 171.929C153.239 171.058 153.628 170.667 154.448 170.659C155.381 170.659 156.305 170.48 157.238 170.382C157.587 170.349 157.628 170.439 157.531 170.797C157.368 171.375 157.068 171.652 156.468 171.685C155.494 171.726 154.537 171.88 153.563 171.978C153.401 171.994 153.239 171.954 153.068 171.937V171.929Z" fill="white"/>
<path d="M154.488 168.704C154.529 167.882 154.845 167.515 155.502 167.45C156.517 167.336 157.539 167.23 158.553 167.116C158.926 167.076 158.967 167.165 158.861 167.54C158.707 168.11 158.407 168.37 157.823 168.395C156.865 168.436 155.916 168.59 154.959 168.688C154.813 168.704 154.667 168.688 154.488 168.696V168.704Z" fill="white"/>
<path d="M147.583 189.567C147.494 189.567 147.413 189.567 147.324 189.551C145.66 189.331 143.957 189.168 142.245 189.071C141.141 189.006 140.306 188.053 140.371 186.954C140.436 185.854 141.377 184.991 142.48 185.072C144.281 185.178 146.082 185.349 147.835 185.577C148.93 185.716 149.701 186.726 149.555 187.825C149.425 188.835 148.565 189.567 147.575 189.567H147.583Z" fill="black"/>
<path d="M98.1992 195.536C97.3879 195.536 96.6253 195.031 96.3251 194.225C95.9438 193.183 96.4712 192.035 97.5096 191.652C98.183 191.4 114.231 185.553 133.556 184.942C133.58 184.942 133.596 184.942 133.621 184.942C134.692 184.942 135.584 185.797 135.617 186.88C135.649 187.988 134.789 188.908 133.686 188.948C115.026 189.543 99.0511 195.357 98.8889 195.414C98.6617 195.496 98.4264 195.536 98.1992 195.536Z" fill="black"/>
<path d="M181.553 170.032C181.553 170.032 184.465 180.626 185.918 187.564Z" fill="#53B6F9"/>
<path d="M185.918 189.567C184.993 189.567 184.165 188.916 183.971 187.971C182.551 181.171 179.663 170.667 179.638 170.561C179.346 169.494 179.971 168.395 181.034 168.094C182.105 167.8 183.2 168.427 183.492 169.494C183.524 169.6 186.437 180.227 187.889 187.149C188.116 188.232 187.427 189.29 186.348 189.518C186.21 189.551 186.072 189.559 185.934 189.559L185.918 189.567Z" fill="black"/>
<path d="M115.261 240.006C115.261 240.006 166.576 238.833 182.777 243.035L181.966 239.811C181.966 239.811 133.101 233.418 115.269 240.006H115.261Z" fill="black"/>
<path d="M216.869 58.1535C216.869 58.1535 237.006 57.5591 250.838 65.7755L249.24 69.4399" fill="black"/>
<path d="M83.7509 191.921C83.1425 191.921 82.5583 191.644 82.1851 191.139C70.3401 175.423 67.4924 163.436 66.8434 157.695C66.2105 152.044 69.3016 146.596 74.5426 144.145L74.64 144.096C74.9077 143.974 75.1917 143.909 75.4756 143.909C75.8975 143.909 76.3194 144.047 76.6601 144.308C77.2443 144.748 77.5363 145.48 77.4065 146.205C74.9158 161.05 85.3168 176.335 85.4222 176.49C85.6494 176.823 85.7711 177.222 85.7711 177.621L85.7062 189.95C85.7062 190.797 85.1626 191.546 84.3594 191.815C84.1566 191.88 83.9457 191.913 83.7428 191.913L83.7509 191.921Z" fill="#FFD629"/>
<path d="M75.4752 145.879C72.8222 161.693 83.8154 177.613 83.8154 177.613L83.7505 189.942C72.9196 175.561 69.5445 164.153 68.7981 157.467C68.2546 152.622 70.9643 147.988 75.3697 145.928L75.4752 145.879ZM75.4752 141.93H75.3616C74.7774 141.946 74.2339 142.093 73.739 142.337L73.7065 142.353C67.7029 145.163 64.1575 151.417 64.8877 157.915C65.5529 163.859 68.4898 176.237 80.6107 192.328C81.3652 193.338 82.5416 193.891 83.7505 193.891C84.1642 193.891 84.5861 193.826 84.9918 193.688C86.59 193.15 87.6772 191.652 87.6853 189.966L87.7502 177.638C87.7502 176.823 87.5068 176.033 87.0525 175.366C86.9551 175.227 77.0734 160.618 79.337 146.661C79.3857 146.409 79.4181 146.14 79.4181 145.871C79.4181 143.697 77.6657 141.93 75.4995 141.922H75.4752V141.93Z" fill="black"/>
<path d="M185.836 180.993C185.617 180.993 185.398 180.96 185.196 180.887C184.53 180.659 184.043 180.081 183.906 179.388C177.407 144.902 166.122 127.655 166.008 127.484C165.692 127.012 165.594 126.417 165.749 125.864C165.903 125.31 166.284 124.854 166.795 124.61L173.87 121.222C174.137 121.092 174.43 121.027 174.713 121.027C175.346 121.027 175.963 121.336 176.336 121.89C176.555 122.216 181.861 130.147 188.984 150.594C196.456 172.043 187.5 180.178 187.118 180.512C186.753 180.83 186.299 180.993 185.828 180.993H185.836Z" fill="#FFD629"/>
<path d="M174.721 122.997C174.721 122.997 180.019 130.806 187.134 151.237C194.249 171.669 185.836 179.014 185.836 179.014C179.183 143.729 167.647 126.376 167.647 126.376L174.721 122.989M174.721 119.039C174.153 119.039 173.577 119.162 173.034 119.422L165.959 122.81C164.929 123.306 164.166 124.218 163.858 125.326C163.558 126.433 163.744 127.614 164.377 128.567C164.483 128.73 175.581 145.822 181.974 179.747C182.234 181.139 183.216 182.279 184.546 182.743C184.968 182.89 185.406 182.963 185.836 182.963C186.769 182.963 187.686 182.629 188.416 181.994C189.487 181.066 198.622 172.255 190.85 149.934C183.646 129.251 178.202 121.108 177.975 120.774C177.22 119.666 175.987 119.048 174.721 119.048V119.039Z" fill="black"/>
<path d="M179.379 158.347C178.162 158.347 177.067 157.614 176.597 156.49L171.347 143.901C170.747 142.451 171.364 140.757 172.751 140.041L181.813 135.359C182.235 135.139 182.714 135.025 183.193 135.025C184.426 135.025 185.521 135.766 185.983 136.906L191.419 150.293C192.044 151.824 191.314 153.583 189.797 154.226L180.548 158.127C180.174 158.281 179.785 158.363 179.379 158.363V158.347Z" fill="#FF9566"/>
<path d="M183.192 136.995C183.605 136.995 183.995 137.239 184.165 137.655L189.601 151.034C189.82 151.571 189.569 152.182 189.033 152.402L179.784 156.302C179.654 156.359 179.516 156.384 179.379 156.384C178.965 156.384 178.575 156.14 178.413 155.741L173.164 143.151C172.953 142.646 173.164 142.06 173.651 141.808L182.713 137.125C182.867 137.044 183.029 137.011 183.192 137.011M183.192 133.062C182.405 133.062 181.618 133.257 180.912 133.616L171.85 138.306C169.554 139.495 168.54 142.288 169.537 144.682L174.787 157.271C175.565 159.136 177.367 160.341 179.379 160.341C180.044 160.341 180.693 160.211 181.309 159.951L190.558 156.05C193.065 154.991 194.266 152.076 193.244 149.552L187.808 136.173C187.037 134.283 185.228 133.062 183.192 133.062Z" fill="black"/>
<path d="M72.2212 179.575C71.0042 179.575 69.909 178.843 69.4384 177.719L64.1893 165.121C63.5889 163.672 64.2055 161.978 65.5928 161.262L74.6551 156.579C75.0851 156.359 75.5557 156.245 76.0343 156.245C77.2675 156.245 78.3628 156.986 78.8252 158.135L84.261 171.514C84.8857 173.045 84.1555 174.804 82.6383 175.447L73.3895 179.347C73.0163 179.502 72.6269 179.584 72.2212 179.584V179.575Z" fill="#FF9566"/>
<path d="M76.0345 158.216C76.4482 158.216 76.8377 158.46 77.008 158.876L82.4438 172.255C82.6628 172.792 82.4113 173.403 81.8759 173.623L72.627 177.524C72.4972 177.581 72.3593 177.605 72.2213 177.605C71.8076 177.605 71.4182 177.361 71.2559 176.962L66.0068 164.372C65.7958 163.868 66.0068 163.281 66.4935 163.029L75.5558 158.346C75.71 158.265 75.8722 158.232 76.0345 158.232M76.0345 154.283C75.2475 154.283 74.4605 154.478 73.7547 154.837L64.6924 159.519C62.3965 160.708 61.3823 163.501 62.3802 165.895L67.6294 178.484C68.4082 180.349 70.2093 181.554 72.2213 181.554C72.8866 181.554 73.5357 181.424 74.1441 181.164L83.393 177.263C85.8999 176.204 87.1007 173.289 86.0784 170.765L80.6427 157.386C79.8719 155.496 78.0627 154.275 76.0264 154.275H76.0345V154.283Z" fill="black"/>
</svg>
