<svg width="20" height="20" viewBox="0 0 20 20" fill="none" xmlns="http://www.w3.org/2000/svg">
<g clip-path="url(#clip0_441_3)">
<path d="M15.8355 9.51115C15.8355 9.04955 15.4563 8.67035 14.9955 8.67035H13.5787C13.1171 8.67035 12.7219 9.04955 12.7219 9.52795V14.8711C12.5571 14.8215 12.3595 14.7719 12.1283 14.7223C11.8155 14.6399 11.5843 14.3599 11.5843 14.0295V7.39995C11.5843 6.93835 11.2051 6.54235 10.7275 6.54235H9.31072C8.84912 6.54235 8.45392 6.92155 8.45392 7.39995V13.5519C8.45392 13.5519 8.10752 13.4031 7.76192 13.2551C7.49792 13.1399 7.33312 12.8927 7.33312 12.5951V5.25675C7.33312 4.79515 6.95392 4.39915 6.49232 4.39915H5.07552C4.61392 4.39915 4.23472 4.77835 4.23472 5.25675V11.3095C3.01552 10.4191 1.76272 9.34715 0.773917 8.06075C0.477117 7.68155 0.394717 7.18635 0.559517 6.72475C2.37232 1.51355 8.07312 -1.25765 13.2803 0.556747C18.4875 2.37115 21.2555 8.07675 19.4435 13.2887C19.2459 13.8823 18.9819 14.4431 18.6691 14.9871C18.4219 15.4159 17.9603 15.6631 17.4659 15.6135C17.2019 15.5967 16.8723 15.5639 16.4611 15.5143C16.0987 15.4815 15.8347 15.1679 15.8347 14.8047L15.8355 9.51115Z" fill="white"/>
<path d="M15.8691 18.0872C11.4035 21.336 5.15794 20.3464 1.91234 15.8776C0.67634 14.1624 0.00114085 12.1008 0.00114085 9.99039C0.00114085 9.75919 0.0179397 9.52879 0.0339397 9.29759C3.67474 14.756 10.4147 17.312 15.8691 18.0872Z" fill="white"/>
</g>
<defs>
<clipPath id="clip0_441_3">
<rect width="20" height="20" fill="white" transform="matrix(-1 0 0 1 20 0)"/>
</clipPath>
</defs>
</svg>
