<svg width="23" height="23" viewBox="0 0 23 23" fill="none" xmlns="http://www.w3.org/2000/svg">
<g clip-path="url(#clip0_441_9)">
<path d="M11.4999 22.9998C17.8512 22.9998 22.9998 17.8512 22.9998 11.4999C22.9998 5.14869 17.8512 0 11.4999 0C5.14869 0 0 5.14869 0 11.4999C0 17.8512 5.14869 22.9998 11.4999 22.9998Z" fill="white"/>
<path d="M12.7487 12.249C12.7505 12.236 12.7526 12.2229 12.7542 12.21C12.7557 12.197 12.7568 12.1835 12.7578 12.1704C12.7601 12.1459 12.7615 12.1214 12.7625 12.0972C12.7625 12.0864 12.7625 12.0757 12.7633 12.0651C12.7633 12.0573 12.7642 12.0498 12.7642 12.0421C12.7642 12.0372 12.7642 12.0326 12.7642 12.0278C12.7642 12.0007 12.7627 11.9736 12.7609 11.9465C12.7609 11.9405 12.7601 11.9349 12.7596 11.929L12.7584 11.9155C12.7577 11.904 12.7569 11.8926 12.7558 11.8813C12.7528 11.8547 12.7488 11.8283 12.7444 11.802L12.7429 11.7938L12.7389 11.7721C12.7367 11.7597 12.7348 11.7473 12.7322 11.7353C12.7271 11.7116 12.7211 11.6881 12.7147 11.6648L12.7114 11.6532L12.7073 11.638C12.7029 11.6228 12.6989 11.6076 12.694 11.5924C12.6878 11.5729 12.6806 11.5535 12.6735 11.5337C12.6703 11.5252 12.6668 11.5167 12.6634 11.5083C12.6564 11.4907 12.65 11.4727 12.6424 11.4553C12.6348 11.438 12.628 11.4238 12.6205 11.4082C12.6146 11.396 12.6083 11.3841 12.6022 11.3722C12.5945 11.357 12.587 11.3418 12.5785 11.3265C12.5747 11.3195 12.5715 11.3124 12.5677 11.3054C12.5639 11.2984 12.5585 11.2921 12.5544 11.2853C12.5456 11.2701 12.5361 11.2564 12.5267 11.2419C12.5196 11.2305 12.5123 11.2192 12.5048 11.2082C12.4951 11.1939 12.485 11.1793 12.4743 11.165C12.4637 11.1507 12.4509 11.1353 12.4392 11.1207C12.4332 11.1137 12.4281 11.1055 12.4221 11.0992C12.4087 11.0833 12.3955 11.0673 12.3816 11.0517C12.371 11.0402 12.3596 11.0293 12.3489 11.0179L12.3378 11.0064L12.3299 10.9981C12.3125 10.9811 12.2953 10.964 12.2772 10.9477C12.2679 10.9392 12.258 10.9312 12.2483 10.9233C12.2428 10.9184 12.2371 10.9137 12.2315 10.9088L12.2256 10.9036C12.2049 10.8868 12.184 10.8703 12.1625 10.8543C12.1533 10.8476 12.1434 10.841 12.1339 10.8343L12.1228 10.8269L12.1087 10.8171C12.0861 10.8019 12.063 10.7867 12.04 10.7737C12.0359 10.7711 12.0319 10.7683 12.0278 10.7658C12.0208 10.7619 12.0126 10.7588 12.0063 10.7549L11.9795 10.7396C11.9588 10.7288 11.9383 10.7182 11.917 10.7084C11.9037 10.7022 11.8903 10.696 11.8769 10.6903C11.8635 10.6847 11.8529 10.6804 11.841 10.6751C11.8246 10.6685 11.808 10.6617 11.7909 10.6558H11.7896V5.31311H10.7915V6.81818L9.7693 5.79634L9.06351 6.50213L10.7915 8.22991V10.6558H10.7895C10.7729 10.662 10.7564 10.6685 10.7398 10.6751C10.728 10.6798 10.7161 10.6845 10.7042 10.6903C10.6923 10.6961 10.6774 10.7025 10.6639 10.7088C10.6427 10.7185 10.622 10.7291 10.6013 10.7399C10.5923 10.7448 10.5835 10.7495 10.5747 10.7552C10.5658 10.7608 10.5602 10.7622 10.5532 10.7661C10.5488 10.7687 10.545 10.7719 10.5406 10.7741C10.5173 10.7881 10.4949 10.8025 10.4722 10.8174L10.4582 10.8269L10.4529 10.8308C10.4415 10.8386 10.43 10.8461 10.4189 10.854C10.3973 10.8701 10.3761 10.8869 10.3551 10.9042L10.3495 10.9091L10.344 10.9135L10.3391 10.9176L8.2382 9.70483L7.60578 7.34508L6.64148 7.60392L7.01569 9.00027L5.7119 8.24727L5.21269 9.1117L6.51633 9.86454L5.12012 10.2385L5.37894 11.2029L7.7387 10.5703L9.83963 11.7831C9.8375 11.7953 9.83522 11.8075 9.83309 11.8195C9.83004 11.8407 9.82716 11.862 9.82487 11.8834C9.8235 11.8942 9.82304 11.9051 9.82197 11.916C9.82045 11.9335 9.81863 11.951 9.81787 11.9687C9.8168 11.9891 9.81634 12.0098 9.81634 12.0296C9.81634 12.0346 9.81558 12.0392 9.81558 12.0439C9.81558 12.0486 9.81634 12.0532 9.81634 12.0582C9.81634 12.0786 9.81634 12.099 9.81787 12.1191C9.81939 12.1392 9.82045 12.1547 9.82197 12.1726C9.82304 12.1834 9.8235 12.1942 9.82487 12.2051C9.82716 12.226 9.82974 12.247 9.83309 12.268C9.83491 12.2803 9.8375 12.2928 9.83963 12.3051L7.7387 13.5181L5.37894 12.8855L5.12012 13.8496L6.51633 14.2239L5.21269 14.9762L5.7119 15.8411L7.01569 15.0881L6.64148 16.4843L7.60578 16.7432L8.2382 14.3834L10.3391 13.1706L10.3446 13.1751L10.3483 13.1783L10.356 13.1847C10.3768 13.2016 10.3973 13.2182 10.4191 13.2338C10.4302 13.2422 10.4418 13.2491 10.4532 13.2576L10.457 13.2601C10.4625 13.2637 10.4676 13.2676 10.4733 13.2713C10.4952 13.2865 10.5177 13.3003 10.5407 13.3137C10.5451 13.3163 10.5489 13.3195 10.5534 13.3218C10.5619 13.327 10.5709 13.3311 10.5797 13.336C10.5885 13.3408 10.5934 13.3433 10.6001 13.3468L10.6086 13.3515C10.622 13.3585 10.6353 13.3657 10.649 13.3722C10.67 13.3826 10.6911 13.3917 10.7123 13.401L10.7187 13.4039C10.7319 13.4097 10.745 13.4144 10.7584 13.4191L10.7799 13.4272L10.7915 13.4316V15.8567L9.06351 17.5847L9.7693 18.2905L10.7915 17.2684V18.7738H11.7896V17.2684L12.8115 18.2905L13.5175 17.5847L11.7897 15.8567V13.4316L11.8011 13.4272L11.8229 13.4191C11.836 13.4139 11.8492 13.4092 11.8623 13.4039L11.8693 13.4007C11.8902 13.3915 11.9112 13.3824 11.9319 13.3724C11.9458 13.3655 11.9593 13.3584 11.9727 13.3512L11.9806 13.3469C11.9876 13.3431 11.9946 13.3396 12.0016 13.3357C12.0086 13.3317 12.0191 13.3265 12.028 13.3217C12.0321 13.3194 12.0359 13.3162 12.0402 13.3136C12.0631 13.3002 12.0858 13.286 12.1077 13.2713L12.1242 13.2596L12.1281 13.257C12.1394 13.2493 12.1508 13.2418 12.1619 13.2335C12.1834 13.2183 12.2043 13.2013 12.225 13.1845L12.233 13.1775L12.2367 13.1743L12.2419 13.1702L14.3428 14.3829L14.9754 16.7427L15.9395 16.4839L15.5653 15.0877L16.869 15.8407L17.3682 14.9758L12.7412 12.3047C12.7435 12.2851 12.7464 12.2671 12.7487 12.249Z" fill="#171B1F"/>
<path d="M15.3197 12.2616C15.5249 11.8951 15.6307 11.4813 15.6266 11.0612C15.6225 10.6411 15.5086 10.2294 15.2962 9.86701C15.0839 9.50457 14.7804 9.20396 14.416 8.99503C14.0516 8.78611 13.6388 8.67612 13.2188 8.67598V9.6741C13.4646 9.6743 13.7061 9.73872 13.9194 9.86102C14.1327 9.98332 14.3103 10.1593 14.4347 10.3713C14.559 10.5834 14.6258 10.8243 14.6284 11.0702C14.6309 11.316 14.5692 11.5583 14.4493 11.7729L15.3197 12.2616Z" fill="#171B1F"/>
<path d="M12.6416 5.2991V6.29719C13.5185 6.29739 14.3796 6.53052 15.1368 6.97273C15.894 7.41494 16.5201 8.05036 16.9512 8.81398C17.3822 9.5776 17.6027 10.442 17.59 11.3188C17.5773 12.1956 17.3319 13.0533 16.879 13.8041L17.7331 14.3208C18.2776 13.4186 18.5726 12.3879 18.588 11.3342C18.6034 10.2805 18.3385 9.24163 17.8206 8.32388C17.3027 7.40613 16.5502 6.64244 15.6402 6.11097C14.7302 5.57951 13.6954 5.29933 12.6416 5.2991Z" fill="#171B1F"/>
</g>
<defs>
<clipPath id="clip0_441_9">
<rect width="23" height="23" fill="white"/>
</clipPath>
</defs>
</svg>
