<svg width="32" height="32" viewBox="0 0 32 32" fill="none" xmlns="http://www.w3.org/2000/svg">
<path d="M12.442 4C9.30023 4 6.74605 6.55419 6.74605 9.69595C6.74605 12.7778 9.15634 15.272 12.2981 15.3799C12.394 15.3679 12.49 15.3679 12.5619 15.3799H12.6459C14.12 15.3307 15.5173 14.7102 16.5422 13.6494C17.5672 12.5887 18.1394 11.171 18.138 9.69595C18.138 6.55419 15.5838 4 12.442 4ZM18.5337 18.5684C15.1881 16.338 9.73193 16.338 6.36232 18.5684C4.8394 19.5877 4 20.9667 4 22.4417C4 23.9166 4.8394 25.2837 6.35033 26.291C8.02914 27.4182 10.2356 27.9818 12.442 27.9818C14.6484 27.9818 16.8549 27.4182 18.5337 26.291C20.0446 25.2717 20.884 23.9047 20.884 22.4177C20.872 20.9428 20.0446 19.5757 18.5337 18.5684ZM25.6206 10.4011C25.8125 12.7274 24.1577 14.766 21.8673 15.0418H21.8073C21.7354 15.0418 21.6635 15.0418 21.6035 15.0657C20.4403 15.1257 19.3731 14.754 18.5696 14.0704C19.8048 12.9672 20.5123 11.3124 20.3684 9.51368C20.2861 8.57835 19.9684 7.67906 19.445 6.89954C20.0734 6.59385 20.7666 6.44562 21.465 6.46763C22.1635 6.48964 22.846 6.68123 23.4539 7.02587C24.0617 7.37052 24.5766 7.85786 24.9541 8.44588C25.3316 9.03389 25.5603 9.70491 25.6206 10.4011Z" fill="#515562"/>
<path d="M28.017 21.4956C27.9211 22.6587 27.1776 23.666 25.9305 24.3495C24.7313 25.0091 23.2204 25.3208 21.7215 25.2849C22.5849 24.5054 23.0885 23.5341 23.1844 22.5029C23.3044 21.0159 22.5969 19.5889 21.1819 18.4497C20.3784 17.8142 19.4431 17.3105 18.4238 16.9388C21.0739 16.1713 24.4076 16.687 26.4581 18.3418C27.5613 19.2292 28.1249 20.3444 28.017 21.4956Z" fill="#515562"/>
</svg>
