<svg width="32" height="32" viewBox="0 0 32 32" fill="none" xmlns="http://www.w3.org/2000/svg">
<path d="M23.1172 21.3123L23.5462 24.7882C23.6562 25.7012 22.6772 26.3391 21.8962 25.8662L18.0901 23.6003C17.8261 23.4463 17.7601 23.1163 17.9031 22.8523C18.4531 21.8403 18.7501 20.6964 18.7501 19.5524C18.7501 15.5266 15.2961 12.2487 11.05 12.2487C10.181 12.2487 9.334 12.3807 8.54199 12.6447C8.44835 12.6736 8.34873 12.6772 8.25325 12.6551C8.15777 12.6331 8.06982 12.5862 7.99833 12.5191C7.92684 12.4521 7.87435 12.3674 7.84618 12.2735C7.81802 12.1797 7.81519 12.08 7.83798 11.9847C8.839 7.98088 12.689 5 17.2871 5C22.6552 5 27.0002 9.05884 27.0002 14.0636C27.0002 17.0335 25.4712 19.6624 23.1172 21.3123Z" fill="#515562"/>
<path d="M17.1002 19.5525C17.1002 20.8614 16.6162 22.0714 15.8021 23.0283C14.7131 24.3483 12.9861 25.1952 11.0501 25.1952L8.17904 26.9002C7.69504 27.1971 7.07903 26.7902 7.14503 26.2292L7.42003 24.0623C5.94601 23.0393 5 21.4004 5 19.5525C5 17.6165 6.03401 15.9116 7.61803 14.8996C8.59705 14.2617 9.77406 13.8987 11.0501 13.8987C14.3941 13.8987 17.1002 16.4286 17.1002 19.5525Z" fill="#515562"/>
</svg>
