<svg width="26" height="26" viewBox="0 0 26 26" fill="none" xmlns="http://www.w3.org/2000/svg">
<path d="M19.51 8.605C18.31 7.425 16.65 6.745 14.95 6.745H13.3V5.575C13.3 5.425 13.24 5.275 13.13 5.165C12.9 4.945 12.5 4.945 12.27 5.165C12.16 5.275 12.1 5.425 12.1 5.575V6.755H10.45C8.73 6.755 7.11 7.415 5.89 8.615C4.67 9.805 4 11.395 4 13.075C4 14.755 4.67 16.345 5.89 17.545C7.11 18.735 8.73 19.395 10.45 19.395H14.95C16.65 19.395 18.31 18.715 19.51 17.545C20.73 16.345 21.4 14.765 21.4 13.075C21.4 11.385 20.73 9.805 19.51 8.615V8.605ZM18.66 16.725C17.67 17.695 16.35 18.235 14.95 18.235H10.45C9.05 18.235 7.73 17.695 6.74 16.725C5.76 15.765 5.2 14.435 5.2 13.075C5.2 11.715 5.75 10.405 6.74 9.435C7.73 8.455 9.05 7.925 10.45 7.925H14.95C16.35 7.925 17.67 8.455 18.66 9.435C19.65 10.405 20.2 11.705 20.2 13.075C20.2 14.445 19.64 15.765 18.66 16.725Z" fill="white"/>
<path d="M10.9301 11.725C10.5701 11.365 10.0601 11.165 9.5501 11.165C9.0401 11.165 8.5401 11.365 8.1701 11.725C7.8001 12.085 7.6001 12.555 7.6001 13.065C7.6001 13.575 7.8001 14.055 8.1701 14.415C8.5401 14.775 9.0301 14.975 9.5501 14.975C10.0701 14.975 10.5701 14.765 10.9301 14.415C11.3001 14.055 11.5001 13.575 11.5001 13.065C11.5001 12.555 11.3001 12.085 10.9301 11.725ZM10.0801 13.595C9.9401 13.735 9.7501 13.805 9.5501 13.805C9.3501 13.805 9.1601 13.735 9.0201 13.595C8.8801 13.455 8.8001 13.265 8.8001 13.065C8.8001 12.865 8.8801 12.675 9.0201 12.545C9.3001 12.265 9.8001 12.265 10.0801 12.545C10.2201 12.675 10.3001 12.875 10.3001 13.065C10.3001 13.265 10.2201 13.455 10.0801 13.595Z" fill="white"/>
<path d="M17.9499 13.0352C17.9599 13.2252 17.8999 13.4052 17.7799 13.5452C17.6499 13.6852 17.4799 13.7852 17.2899 13.8052H16.5999V14.4052C16.5999 14.5852 16.5299 14.7652 16.3999 14.9052C16.2699 15.0352 16.0899 15.1252 15.8899 15.1352C15.6999 15.1452 15.5099 15.0852 15.3699 14.9652C15.2199 14.8452 15.1299 14.6752 15.1099 14.4952V14.3952V13.8052H14.5099C14.3199 13.8052 14.1299 13.7352 13.9999 13.6052C13.8599 13.4852 13.7699 13.3052 13.7599 13.1252C13.7499 12.9352 13.8099 12.7552 13.9299 12.6052C14.0599 12.4652 14.2299 12.3752 14.4199 12.3552H14.5099H15.1099V11.7252C15.1099 11.5452 15.1999 11.3752 15.3299 11.2452C15.4699 11.1052 15.6599 11.0352 15.8599 11.0352C16.0399 11.0352 16.2199 11.0952 16.3599 11.2152C16.4999 11.3352 16.5799 11.4952 16.5999 11.6752V11.7652L16.6099 12.3552H17.2099C17.3999 12.3552 17.5899 12.4252 17.7199 12.5552C17.8599 12.6852 17.9499 12.8552 17.9599 13.0452L17.9499 13.0352Z" fill="white"/>
</svg>
