<svg width="26" height="26" viewBox="0 0 26 26" fill="none" xmlns="http://www.w3.org/2000/svg">
<path d="M19.409 7.08587C19.3958 7.0748 19.376 7.07295 19.3604 7.06569C18.2903 6.56947 17.1328 6.20897 15.9274 6.00004C15.9167 5.9997 15.9061 6.00169 15.8964 6.00589C15.8769 6.01422 15.8656 6.03367 15.8555 6.05228C15.8408 6.07959 15.8258 6.10765 15.8107 6.13631C15.5762 6.58114 15.0943 6.84932 14.5932 6.80707C13.9084 6.74932 13.2201 6.74588 12.5348 6.79673C11.9578 6.83954 11.4074 6.52575 11.1187 6.02432C11.0995 5.98591 11.0407 6.00368 10.9984 6.01121C9.81425 6.22205 8.6844 6.57937 7.62399 7.06808C7.61164 7.07377 7.59855 7.07654 7.58847 7.08566C7.58392 7.08978 7.57921 7.09555 7.5758 7.10066C5.37805 10.3928 4.77208 13.5961 5.07137 16.767C5.07137 16.8001 5.10921 16.8174 5.13596 16.8369C6.57868 17.888 7.96612 18.5277 9.33768 18.9528C9.37801 18.9662 9.40696 18.9193 9.43177 18.8848C9.74065 18.455 10.0193 18.0027 10.2606 17.528C10.2768 17.4956 10.2606 17.4632 10.2282 17.4551C9.76674 17.277 9.32959 17.0665 8.90053 16.8237C8.8392 16.793 8.92042 16.7145 8.97485 16.6728C9.02009 16.6382 9.06533 16.6027 9.11057 16.5686C9.143 16.5441 9.17992 16.506 9.21625 16.5241C12.0011 17.7951 15.0045 17.7951 17.757 16.5241C17.7731 16.516 17.7974 16.516 17.8136 16.5322C17.9027 16.6051 17.9917 16.6699 18.0808 16.7427C18.1394 16.7867 18.0412 16.8509 17.9776 16.8874C17.5849 17.1129 17.1719 17.2985 16.745 17.4632C16.6877 17.4775 16.7263 17.5624 16.7542 17.6145C16.9908 18.0573 17.2533 18.4803 17.5358 18.8836C17.5637 18.9234 17.6057 18.9681 17.6517 18.9528C19.0313 18.5277 20.4188 17.888 21.8615 16.8369C21.8883 16.8174 21.9261 16.8001 21.9261 16.767C22.2819 13.1038 21.3372 9.92521 19.4228 7.10221C19.4186 7.09605 19.4148 7.09065 19.409 7.08587ZM10.6815 14.8322C9.84769 14.8322 9.15148 14.0631 9.15148 13.1159C9.15148 12.1688 9.8315 11.3997 10.6815 11.3997C11.5396 11.3997 12.2197 12.1769 12.2116 13.1159C12.2116 14.0631 11.5316 14.8322 10.6815 14.8322ZM16.3241 14.8322C15.4902 14.8322 14.794 14.0631 14.794 13.1159C14.794 12.1688 15.474 11.3997 16.3241 11.3997C17.1822 11.3997 17.8622 12.1769 17.8541 13.1159C17.8541 14.0631 17.1822 14.8322 16.3241 14.8322Z" fill="white"/>
</svg>
