<svg width="26" height="26" viewBox="0 0 26 26" fill="none" xmlns="http://www.w3.org/2000/svg">
<path d="M7.75 11.5H9.25C10.75 11.5 11.5 10.75 11.5 9.25V7.75C11.5 6.25 10.75 5.5 9.25 5.5H7.75C6.25 5.5 5.5 6.25 5.5 7.75V9.25C5.5 10.75 6.25 11.5 7.75 11.5Z" stroke="white" stroke-width="1.2" stroke-miterlimit="10" stroke-linecap="round" stroke-linejoin="round"/>
<path d="M16.75 11.5H18.25C19.75 11.5 20.5 10.75 20.5 9.25V7.75C20.5 6.25 19.75 5.5 18.25 5.5H16.75C15.25 5.5 14.5 6.25 14.5 7.75V9.25C14.5 10.75 15.25 11.5 16.75 11.5Z" stroke="white" stroke-width="1.2" stroke-miterlimit="10" stroke-linecap="round" stroke-linejoin="round"/>
<path d="M16.75 20.5H18.25C19.75 20.5 20.5 19.75 20.5 18.25V16.75C20.5 15.25 19.75 14.5 18.25 14.5H16.75C15.25 14.5 14.5 15.25 14.5 16.75V18.25C14.5 19.75 15.25 20.5 16.75 20.5Z" stroke="white" stroke-width="1.2" stroke-miterlimit="10" stroke-linecap="round" stroke-linejoin="round"/>
<path d="M7.75 20.5H9.25C10.75 20.5 11.5 19.75 11.5 18.25V16.75C11.5 15.25 10.75 14.5 9.25 14.5H7.75C6.25 14.5 5.5 15.25 5.5 16.75V18.25C5.5 19.75 6.25 20.5 7.75 20.5Z" stroke="white" stroke-width="1.2" stroke-miterlimit="10" stroke-linecap="round" stroke-linejoin="round"/>
</svg>
