<svg width="59" height="59" viewBox="0 0 59 59" fill="none" xmlns="http://www.w3.org/2000/svg">
<rect x="0.34082" width="58.617" height="58.617" rx="10" fill="#1E252B"/>
<path d="M34.0456 17.5852L42.8381 20.5161V27.8432H38.4418V39.5666C38.4418 39.9552 38.2874 40.328 38.0126 40.6028C37.7378 40.8776 37.3651 41.032 36.9764 41.032H22.3222C21.9335 41.032 21.5608 40.8776 21.2859 40.6028C21.0111 40.328 20.8567 39.9552 20.8567 39.5666V27.8432H16.4604V20.5161L25.253 17.5852C25.253 18.7512 25.7162 19.8694 26.5406 20.6938C27.3651 21.5183 28.4833 21.9815 29.6493 21.9815C30.8152 21.9815 31.9335 21.5183 32.7579 20.6938C33.5824 19.8694 34.0456 18.7512 34.0456 17.5852Z" stroke="white" stroke-width="1.5" stroke-linecap="round" stroke-linejoin="round"/>
</svg>
