<svg width="59" height="59" viewBox="0 0 59 59" fill="none" xmlns="http://www.w3.org/2000/svg">
<rect width="58.617" height="58.617" rx="10" fill="#1E252B"/>
<path d="M39.0781 32.6466L38.5462 27.8475M19.539 32.6466L20.0709 27.8475M20.0709 27.8475L20.6027 23.0485C20.8882 20.0836 23.2566 18.2701 25.3939 19.3798C27.9069 20.6846 30.7102 20.6846 33.2232 19.3798C35.3605 18.2701 37.7289 20.0836 38.0144 23.0485L38.5462 27.8475M20.0709 27.8475C22.592 27.0186 29.8167 25.8581 38.5462 27.8475M43.9628 35.3395C43.9628 37.674 37.4019 39.5665 29.3086 39.5665C21.2152 39.5665 14.6543 37.674 14.6543 35.3395C14.6543 33.005 21.2152 31.1125 29.3086 31.1125C37.4019 31.1125 43.9628 33.005 43.9628 35.3395Z" stroke="white" stroke-width="1.5"/>
</svg>
