<svg width="40" height="40" viewBox="0 0 40 40" fill="none" xmlns="http://www.w3.org/2000/svg">
<rect width="40" height="40" rx="10" fill="#1E252B"/>
<path d="M12.67 26.1111C12.67 26.2216 12.7595 26.3111 12.87 26.3111H16.61C16.7205 26.3111 16.81 26.2216 16.81 26.1111V18.5556C16.81 18.4451 16.7205 18.3556 16.61 18.3556H12.87C12.7595 18.3556 12.67 18.4451 12.67 18.5556V26.1111ZM18.28 26.1111C18.28 26.2216 18.3695 26.3111 18.48 26.3111H22.22C22.3305 26.3111 22.42 26.2216 22.42 26.1111V12.8889C22.42 12.7784 22.3305 12.6889 22.22 12.6889H18.48C18.3695 12.6889 18.28 12.7784 18.28 12.8889V26.1111ZM23.89 26.1111C23.89 26.2216 23.9795 26.3111 24.09 26.3111H27.83C27.9405 26.3111 28.03 26.2216 28.03 26.1111V20.4444C28.03 20.334 27.9405 20.2444 27.83 20.2444H24.09C23.9795 20.2444 23.89 20.334 23.89 20.4444V26.1111ZM11.2 26.1114V26.1111V18.5556C11.2 18.089 11.3623 17.6947 11.6919 17.3618C12.0214 17.0289 12.4105 16.8661 12.8698 16.8667H12.87H16.61C16.7205 16.8667 16.81 16.7771 16.81 16.6667V12.8889C16.81 12.4223 16.9723 12.028 17.3019 11.6951C17.6314 11.3623 18.0205 11.1994 18.4798 11.2H18.48H22.22C22.6801 11.2 23.0695 11.3632 23.399 11.696C23.7286 12.0289 23.8906 12.4229 23.89 12.8886V12.8889V18.5556C23.89 18.666 23.9795 18.7556 24.09 18.7556H27.83C28.2901 18.7556 28.6795 18.9188 29.009 19.2516C29.3386 19.5845 29.5006 19.9784 29.5 20.4442V20.4444V26.1111C29.5 26.5777 29.3377 26.972 29.0081 27.3049C28.6786 27.6377 28.2895 27.8006 27.8302 27.8H27.83H12.87C12.4099 27.8 12.0205 27.6368 11.691 27.304C11.3614 26.9711 11.1994 26.5771 11.2 26.1114ZM12.87 16.6667H16.41H16.61H12.87ZM29.7 20.4444V26.1111C29.7 26.6306 29.5167 27.0754 29.1502 27.4456C28.7837 27.8158 28.3436 28.0006 27.83 28H12.87C12.3558 28 11.9154 27.8149 11.5488 27.4447C11.1823 27.0744 10.9994 26.6299 11 26.1111L29.7 20.4444Z" fill="white" stroke="#242C34" stroke-width="0.4" stroke-linejoin="round"/>
</svg>
