<svg width="40" height="40" viewBox="0 0 40 40" fill="none" xmlns="http://www.w3.org/2000/svg">
<rect width="40" height="40" rx="10" fill="#1E252B"/>
<path d="M19.6523 13.6524L17.8523 15.4524C17.5223 15.7824 17.5223 16.3224 17.8523 16.6524C18.1823 16.9824 18.7223 16.9824 19.0523 16.6524L20.8523 14.8524C21.8423 13.8624 23.4623 13.8624 24.4523 14.8524C25.4423 15.8424 25.4423 17.4624 24.4523 18.4524L22.6523 20.2524C22.3223 20.5824 22.3223 21.1223 22.6523 21.4523C22.9823 21.7823 23.5223 21.7823 23.8523 21.4523L25.6523 19.6524C27.3083 17.9964 27.3083 15.3084 25.6523 13.6524C23.9963 11.9964 21.3083 11.9964 19.6523 13.6524ZM17.2523 22.0523C17.5823 22.3823 18.1223 22.3823 18.4523 22.0523L22.0523 18.4524C22.3823 18.1224 22.3823 17.5824 22.0523 17.2524C21.7223 16.9224 21.1823 16.9224 20.8523 17.2524L17.2523 20.8523C16.9223 21.1823 16.9223 21.7223 17.2523 22.0523ZM20.2523 22.6523L18.4523 24.4523C17.4623 25.4423 15.8423 25.4423 14.8523 24.4523C13.8623 23.4623 13.8623 21.8423 14.8523 20.8523L16.6523 19.0524C16.9823 18.7224 16.9823 18.1824 16.6523 17.8524C16.3223 17.5224 15.7823 17.5224 15.4523 17.8524L13.6523 19.6524C11.9963 21.3083 11.9963 23.9963 13.6523 25.6523C15.3083 27.3083 17.9963 27.3083 19.6523 25.6523L21.4523 23.8523C21.7823 23.5223 21.7823 22.9823 21.4523 22.6523C21.1223 22.3223 20.5823 22.3223 20.2523 22.6523Z" fill="white"/>
</svg>
