<svg width="60" height="59" viewBox="0 0 60 59" fill="none" xmlns="http://www.w3.org/2000/svg">
<rect x="0.702148" width="58.617" height="58.617" rx="10" fill="#1E252B"/>
<path d="M29.5489 16.927C29.8483 16.0057 31.1517 16.0057 31.4511 16.9271L33.7555 24.0193C33.8893 24.4313 34.2733 24.7102 34.7065 24.7102H42.1637C43.1324 24.7102 43.5352 25.9499 42.7515 26.5193L36.7185 30.9025C36.368 31.1571 36.2213 31.6085 36.3552 32.0205L38.6596 39.1127C38.959 40.034 37.9045 40.8001 37.1208 40.2307L31.0878 35.8475C30.7373 35.5929 30.2627 35.5929 29.9122 35.8475L23.8792 40.2307C23.0955 40.8001 22.041 40.034 22.3404 39.1127L24.6448 32.0205C24.7787 31.6085 24.632 31.1571 24.2815 30.9025L18.2485 26.5193C17.4648 25.9499 17.8676 24.7102 18.8363 24.7102H26.2935C26.7267 24.7102 27.1107 24.4313 27.2445 24.0193L29.5489 16.927Z" stroke="white" stroke-width="1.5"/>
</svg>
