<svg width="40" height="40" viewBox="0 0 40 40" fill="none" xmlns="http://www.w3.org/2000/svg">
<rect width="40" height="40" rx="10" fill="#1E252B"/>
<path d="M26.8101 17.435V22.565C26.8101 23.405 26.3601 24.185 25.6326 24.6125L21.1776 27.185C20.4501 27.605 19.5501 27.605 18.8151 27.185L14.3601 24.6125C13.6326 24.1925 13.1826 23.4125 13.1826 22.565V17.435C13.1826 16.595 13.6326 15.815 14.3601 15.3875L18.8151 12.815C19.5426 12.395 20.4426 12.395 21.1776 12.815L25.6326 15.3875C26.3601 15.815 26.8101 16.5875 26.8101 17.435Z" stroke="white" stroke-width="1.2" stroke-linecap="round" stroke-linejoin="round"/>
<path d="M19.9999 19.2501C20.9651 19.2501 21.7474 18.4677 21.7474 17.5026C21.7474 16.5375 20.9651 15.7551 19.9999 15.7551C19.0348 15.7551 18.2524 16.5375 18.2524 17.5026C18.2524 18.4677 19.0348 19.2501 19.9999 19.2501Z" stroke="white" stroke-width="1.2" stroke-linecap="round" stroke-linejoin="round"/>
<path d="M23 23.495C23 22.145 21.6575 21.05 20 21.05C18.3425 21.05 17 22.145 17 23.495" stroke="white" stroke-width="1.2" stroke-linecap="round" stroke-linejoin="round"/>
</svg>
