<svg width="40" height="40" viewBox="0 0 40 40" fill="none" xmlns="http://www.w3.org/2000/svg">
<rect width="40" height="40" rx="10" fill="#242C34"/>
<path d="M23.7275 20.1875V23.5625C23.7275 26.375 22.6025 27.5 19.79 27.5H16.415C13.6025 27.5 12.4775 26.375 12.4775 23.5625V20.1875C12.4775 17.375 13.6025 16.25 16.415 16.25H19.79C22.6025 16.25 23.7275 17.375 23.7275 20.1875Z" stroke="white" stroke-width="1.5" stroke-linecap="round" stroke-linejoin="round"/>
<path d="M27.4775 15.3875V17.8625C27.4775 19.925 26.6525 20.75 24.59 20.75H23.7275V20.1875C23.7275 17.375 22.6025 16.25 19.79 16.25H19.2275V15.3875C19.2275 13.325 20.0525 12.5 22.115 12.5H24.59C26.6525 12.5 27.4775 13.325 27.4775 15.3875Z" stroke="white" stroke-width="1.5" stroke-linecap="round" stroke-linejoin="round"/>
<rect width="40" height="40" rx="10" fill="#1E252B"/>
<path d="M27.2451 18.8299L26.5101 21.9649C25.8801 24.6724 24.6351 25.7674 22.2951 25.5424C21.9201 25.5124 21.5151 25.4449 21.0801 25.3399L19.8201 25.0399C16.6926 24.2974 15.7251 22.7524 16.4601 19.6174L17.1951 16.4749C17.3451 15.8374 17.5251 15.2824 17.7501 14.8249C18.6276 13.0099 20.1201 12.5224 22.6251 13.1149L23.8776 13.4074C27.0201 14.1424 27.9801 15.6949 27.2451 18.8299Z" stroke="white" stroke-width="1.2" stroke-linecap="round" stroke-linejoin="round"/>
<path d="M22.2953 25.5425C21.8303 25.8575 21.2453 26.12 20.5328 26.3525L19.3478 26.7425C16.3703 27.7025 14.8028 26.9 13.8353 23.9225L12.8753 20.96C11.9153 17.9825 12.7103 16.4075 15.6878 15.4475L16.8728 15.0575C17.1803 14.96 17.4728 14.8775 17.7503 14.825C17.5253 15.2825 17.3453 15.8375 17.1953 16.475L16.4603 19.6175C15.7253 22.7525 16.6928 24.2975 19.8203 25.04L21.0803 25.34C21.5153 25.445 21.9203 25.5125 22.2953 25.5425Z" stroke="white" stroke-width="1.2" stroke-linecap="round" stroke-linejoin="round"/>
<path d="M20.48 17.3975L24.1175 18.32" stroke="white" stroke-width="1.2" stroke-linecap="round" stroke-linejoin="round"/>
<path d="M19.7451 20.3L21.9201 20.855" stroke="white" stroke-width="1.2" stroke-linecap="round" stroke-linejoin="round"/>
</svg>
