<svg width="59" height="59" viewBox="0 0 59 59" fill="none" xmlns="http://www.w3.org/2000/svg">
<rect x="0.382812" width="58.617" height="58.617" rx="10" fill="#1E252B"/>
<path d="M38 26C36.5 26 34 26 33 28.5C32 31 33.25 33.25 34.5 34.5M27 22H38" stroke="white" stroke-width="1.5" stroke-linecap="round" stroke-linejoin="round"/>
<path d="M28.0001 19H37.0001C37.2653 19 37.5196 19.1054 37.7072 19.2929C37.8947 19.4804 38.0001 19.7348 38.0001 20V29.144C38.0001 30.86 37.2001 32.4775 35.8321 33.514C34.0111 34.894 31.5441 36.754 30.5001 37.5C28.7501 38.75 25.5001 40 23.0001 37.5C20.5006 35 21.1256 31.7215 23.0006 30C24.8756 28.2785 27.0006 26.576 27.0006 26.576V20C27.0006 19.7348 27.1059 19.4804 27.2934 19.2929C27.481 19.1054 27.7348 19 28.0001 19Z" stroke="white" stroke-width="1.5" stroke-linecap="round" stroke-linejoin="round"/>
</svg>
