<svg width="40" height="40" viewBox="0 0 40 40" fill="none" xmlns="http://www.w3.org/2000/svg">
<rect width="40" height="40" rx="10" fill="#1E252B"/>
<path d="M23.7275 20.1875V23.5625C23.7275 26.375 22.6025 27.5 19.79 27.5H16.415C13.6025 27.5 12.4775 26.375 12.4775 23.5625V20.1875C12.4775 17.375 13.6025 16.25 16.415 16.25H19.79C22.6025 16.25 23.7275 17.375 23.7275 20.1875Z" stroke="white" stroke-width="1.5" stroke-linecap="round" stroke-linejoin="round"/>
<path d="M27.4775 15.3875V17.8625C27.4775 19.925 26.6525 20.75 24.59 20.75H23.7275V20.1875C23.7275 17.375 22.6025 16.25 19.79 16.25H19.2275V15.3875C19.2275 13.325 20.0525 12.5 22.115 12.5H24.59C26.6525 12.5 27.4775 13.325 27.4775 15.3875Z" stroke="white" stroke-width="1.5" stroke-linecap="round" stroke-linejoin="round"/>
</svg>
