<svg width="26" height="26" viewBox="0 0 26 26" fill="none" xmlns="http://www.w3.org/2000/svg">
<path d="M10.1201 20.5C6.98509 20.5 6.35509 18.6025 7.37509 16.2925L10.5626 9.055H10.3376C9.85009 9.055 9.40009 8.86 9.07759 8.5375C8.74759 8.215 8.55259 7.765 8.55259 7.2775C8.55259 6.3025 9.34759 5.5 10.3301 5.5H15.6626C16.1576 5.5 16.6001 5.7025 16.9226 6.025C17.3426 6.445 17.5526 7.06 17.3951 7.7125C17.1926 8.5225 16.4126 9.055 15.5801 9.055H15.4601L18.6251 16.3C19.6376 18.61 18.9776 20.5 15.8726 20.5H10.1201Z" stroke="white" stroke-width="1.2" stroke-linecap="round" stroke-linejoin="round"/>
<path d="M8.45508 13.84C8.45508 13.84 10.7501 13.75 13.0001 14.5C15.2501 15.25 17.3726 13.8325 17.3726 13.8325" stroke="white" stroke-width="1.2" stroke-linecap="round" stroke-linejoin="round"/>
</svg>
