<svg width="26" height="26" viewBox="0 0 26 26" fill="none" xmlns="http://www.w3.org/2000/svg">
<path d="M13 17.875C15.6924 17.875 17.875 15.6924 17.875 13C17.875 10.3076 15.6924 8.125 13 8.125C10.3076 8.125 8.125 10.3076 8.125 13C8.125 15.6924 10.3076 17.875 13 17.875Z" stroke="white" stroke-width="1.5" stroke-linecap="round" stroke-linejoin="round"/>
<path d="M18.355 18.355L18.2575 18.2575M18.2575 7.7425L18.355 7.645L18.2575 7.7425ZM7.645 18.355L7.7425 18.2575L7.645 18.355ZM13 5.56V5.5V5.56ZM13 20.5V20.44V20.5ZM5.56 13H5.5H5.56ZM20.5 13H20.44H20.5ZM7.7425 7.7425L7.645 7.645L7.7425 7.7425Z" stroke="white" stroke-width="2" stroke-linecap="round" stroke-linejoin="round"/>
</svg>
