<svg width="26" height="26" viewBox="0 0 26 26" fill="none" xmlns="http://www.w3.org/2000/svg">
<path d="M13.0149 6.18262C10.5324 6.18262 8.51494 8.20012 8.51494 10.6826V12.8501C8.51494 13.3076 8.31994 14.0051 8.08744 14.3951L7.22494 15.8276C6.69244 16.7126 7.05994 17.6951 8.03494 18.0251C11.2674 19.1051 14.7549 19.1051 17.9874 18.0251C18.8949 17.7251 19.2924 16.6526 18.7974 15.8276L17.9349 14.3951C17.7099 14.0051 17.5149 13.3076 17.5149 12.8501V10.6826C17.5149 8.20762 15.4899 6.18262 13.0149 6.18262Z" stroke="white" stroke-width="1.2" stroke-miterlimit="10" stroke-linecap="round"/>
<path d="M14.4024 6.40008C14.1699 6.33258 13.9299 6.28008 13.6824 6.25008C12.9624 6.16008 12.2724 6.21258 11.6274 6.40008C11.8449 5.84508 12.3849 5.45508 13.0149 5.45508C13.6449 5.45508 14.1849 5.84508 14.4024 6.40008Z" stroke="white" stroke-width="1.2" stroke-miterlimit="10" stroke-linecap="round" stroke-linejoin="round"/>
<path d="M15.2651 18.2949C15.2651 19.5324 14.2526 20.5449 13.0151 20.5449C12.4001 20.5449 11.8301 20.2899 11.4251 19.8849C11.0201 19.4799 10.7651 18.9099 10.7651 18.2949" stroke="white" stroke-width="1.2" stroke-miterlimit="10"/>
</svg>
