<svg width="26" height="26" viewBox="0 0 26 26" fill="none" xmlns="http://www.w3.org/2000/svg">
<path d="M19.8101 10.435V15.565C19.8101 16.405 19.3601 17.185 18.6326 17.6125L14.1776 20.185C13.4501 20.605 12.5501 20.605 11.8151 20.185L7.36012 17.6125C6.63262 17.1925 6.18262 16.4125 6.18262 15.565V10.435C6.18262 9.59503 6.63262 8.81499 7.36012 8.38749L11.8151 5.815C12.5426 5.395 13.4426 5.395 14.1776 5.815L18.6326 8.38749C19.3601 8.81499 19.8101 9.58753 19.8101 10.435Z" stroke="white" stroke-width="1.2" stroke-linecap="round" stroke-linejoin="round"/>
<path d="M12.9999 12.2501C13.9651 12.2501 14.7474 11.4677 14.7474 10.5026C14.7474 9.53748 13.9651 8.75513 12.9999 8.75513C12.0348 8.75513 11.2524 9.53748 11.2524 10.5026C11.2524 11.4677 12.0348 12.2501 12.9999 12.2501Z" stroke="white" stroke-width="1.2" stroke-linecap="round" stroke-linejoin="round"/>
<path d="M16 16.495C16 15.145 14.6575 14.05 13 14.05C11.3425 14.05 10 15.145 10 16.495" stroke="white" stroke-width="1.2" stroke-linecap="round" stroke-linejoin="round"/>
</svg>
