<svg width="26" height="26" viewBox="0 0 26 26" fill="none" xmlns="http://www.w3.org/2000/svg">
<path d="M20 19L15.6667 14.6667M7 11.0556C7 11.7195 7.13077 12.3769 7.38483 12.9902C7.6389 13.6036 8.01129 14.1609 8.48074 14.6304C8.95019 15.0998 9.50751 15.4722 10.1209 15.7263C10.7342 15.9803 11.3917 16.1111 12.0556 16.1111C12.7195 16.1111 13.3769 15.9803 13.9902 15.7263C14.6036 15.4722 15.1609 15.0998 15.6304 14.6304C16.0998 14.1609 16.4722 13.6036 16.7263 12.9902C16.9803 12.3769 17.1111 11.7195 17.1111 11.0556C17.1111 10.3917 16.9803 9.73425 16.7263 9.12088C16.4722 8.50751 16.0998 7.95019 15.6304 7.48074C15.1609 7.01129 14.6036 6.6389 13.9902 6.38483C13.3769 6.13077 12.7195 6 12.0556 6C11.3917 6 10.7342 6.13077 10.1209 6.38483C9.50751 6.6389 8.95019 7.01129 8.48074 7.48074C8.01129 7.95019 7.6389 8.50751 7.38483 9.12088C7.13077 9.73425 7 10.3917 7 11.0556Z" stroke="white" stroke-width="1.2" stroke-linecap="round" stroke-linejoin="round"/>
</svg>
