<svg width="26" height="26" viewBox="0 0 26 26" fill="none" xmlns="http://www.w3.org/2000/svg">
<path d="M13 15.25C14.2426 15.25 15.25 14.2426 15.25 13C15.25 11.7574 14.2426 10.75 13 10.75C11.7574 10.75 10.75 11.7574 10.75 13C10.75 14.2426 11.7574 15.25 13 15.25Z" stroke="white" stroke-width="1.2" stroke-miterlimit="10" stroke-linecap="round" stroke-linejoin="round"/>
<path d="M5.5 13.6601V12.3401C5.5 11.5601 6.1375 10.9151 6.925 10.9151C8.2825 10.9151 8.8375 9.95507 8.155 8.77757C7.765 8.10257 7.9975 7.22507 8.68 6.83507L9.9775 6.09257C10.57 5.74007 11.335 5.95007 11.6875 6.54257L11.77 6.68507C12.445 7.86257 13.555 7.86257 14.2375 6.68507L14.32 6.54257C14.6725 5.95007 15.4375 5.74007 16.03 6.09257L17.3275 6.83507C18.01 7.22507 18.2425 8.10257 17.8525 8.77757C17.17 9.95507 17.725 10.9151 19.0825 10.9151C19.8625 10.9151 20.5075 11.5526 20.5075 12.3401V13.6601C20.5075 14.4401 19.87 15.0851 19.0825 15.0851C17.725 15.0851 17.17 16.0451 17.8525 17.2226C18.2425 17.9051 18.01 18.7751 17.3275 19.1651L16.03 19.9076C15.4375 20.2601 14.6725 20.0501 14.32 19.4576L14.2375 19.3151C13.5625 18.1376 12.4525 18.1376 11.77 19.3151L11.6875 19.4576C11.335 20.0501 10.57 20.2601 9.9775 19.9076L8.68 19.1651C7.9975 18.7751 7.765 17.8976 8.155 17.2226C8.8375 16.0451 8.2825 15.0851 6.925 15.0851C6.1375 15.0851 5.5 14.4401 5.5 13.6601Z" stroke="white" stroke-width="1.2" stroke-miterlimit="10" stroke-linecap="round" stroke-linejoin="round"/>
</svg>
