<svg width="26" height="26" viewBox="0 0 26 26" fill="none" xmlns="http://www.w3.org/2000/svg">
<path d="M6.25732 12.415V15.7825C6.25732 19.15 7.60732 20.5 10.9748 20.5H15.0173C18.3848 20.5 19.7348 19.15 19.7348 15.7825V12.415" stroke="white" stroke-width="1.2" stroke-linecap="round" stroke-linejoin="round"/>
<path d="M12.9999 13C14.3724 13 15.3849 11.8825 15.2499 10.51L14.7549 5.5H11.2524L10.7499 10.51C10.6149 11.8825 11.6274 13 12.9999 13Z" stroke="white" stroke-width="1.2" stroke-linecap="round" stroke-linejoin="round"/>
<path d="M17.7326 13C19.2476 13 20.3576 11.77 20.2076 10.2625L19.9976 8.2C19.7276 6.25 18.9776 5.5 17.0126 5.5H14.7251L15.2501 10.7575C15.3776 11.995 16.4951 13 17.7326 13Z" stroke="white" stroke-width="1.2" stroke-linecap="round" stroke-linejoin="round"/>
<path d="M8.22979 13C9.46729 13 10.5848 11.995 10.7048 10.7575L10.8698 9.1L11.2298 5.5H8.94229C6.97729 5.5 6.22729 6.25 5.95729 8.2L5.75479 10.2625C5.60479 11.77 6.71479 13 8.22979 13Z" stroke="white" stroke-width="1.2" stroke-linecap="round" stroke-linejoin="round"/>
<path d="M13 16.75C11.7475 16.75 11.125 17.3725 11.125 18.625V20.5H14.875V18.625C14.875 17.3725 14.2525 16.75 13 16.75Z" stroke="white" stroke-width="1.2" stroke-linecap="round" stroke-linejoin="round"/>
</svg>
