<svg width="26" height="26" viewBox="0 0 26 26" fill="none" xmlns="http://www.w3.org/2000/svg">
<path d="M8.43359 20.5V15.25" stroke="white" stroke-width="1.2" stroke-miterlimit="10" stroke-linecap="round" stroke-linejoin="round"/>
<path d="M8.43359 7.75V5.5" stroke="white" stroke-width="1.2" stroke-miterlimit="10" stroke-linecap="round" stroke-linejoin="round"/>
<path d="M17.6289 20.5V18.25" stroke="white" stroke-width="1.2" stroke-miterlimit="10" stroke-linecap="round" stroke-linejoin="round"/>
<path d="M17.6289 10.75V5.5" stroke="white" stroke-width="1.2" stroke-miterlimit="10" stroke-linecap="round" stroke-linejoin="round"/>
<path d="M10.9414 9.25V13.75C10.9414 14.575 10.5234 15.25 9.26953 15.25H7.59766C6.34375 15.25 5.92578 14.575 5.92578 13.75V9.25C5.92578 8.425 6.34375 7.75 7.59766 7.75H9.26953C10.5234 7.75 10.9414 8.425 10.9414 9.25Z" stroke="white" stroke-width="1.2" stroke-miterlimit="10" stroke-linecap="round" stroke-linejoin="round"/>
<path d="M20.1367 12.25V16.75C20.1367 17.575 19.7188 18.25 18.4648 18.25H16.793C15.5391 18.25 15.1211 17.575 15.1211 16.75V12.25C15.1211 11.425 15.5391 10.75 16.793 10.75H18.4648C19.7188 10.75 20.1367 11.425 20.1367 12.25Z" stroke="white" stroke-width="1.2" stroke-miterlimit="10" stroke-linecap="round" stroke-linejoin="round"/>
</svg>
