<svg width="59" height="59" viewBox="0 0 59 59" fill="none" xmlns="http://www.w3.org/2000/svg">
<path d="M26.0324 40.2993H32.6268C38.1221 40.2993 40.3202 38.1011 40.3202 32.6058V26.0114C40.3202 20.516 38.1221 18.3179 32.6268 18.3179H26.0324C20.537 18.3179 18.3389 20.516 18.3389 26.0114V32.6058C18.3389 38.1011 20.537 40.2993 26.0324 40.2993Z" stroke="white" stroke-width="1.5" stroke-linecap="round" stroke-linejoin="round"/>
<path d="M26.0326 27.1104C27.2466 27.1104 28.2307 26.1262 28.2307 24.9122C28.2307 23.6983 27.2466 22.7141 26.0326 22.7141C24.8186 22.7141 23.8345 23.6983 23.8345 24.9122C23.8345 26.1262 24.8186 27.1104 26.0326 27.1104Z" stroke="white" stroke-width="1.5" stroke-linecap="round" stroke-linejoin="round"/>
<path d="M19.0752 36.9469L24.4936 33.309C25.3619 32.7265 26.6148 32.7925 27.3951 33.4629L27.7578 33.7816C28.6151 34.518 29.9999 34.518 30.8572 33.7816L35.4293 29.8579C36.2866 29.1216 37.6714 29.1216 38.5287 29.8579L40.3202 31.3966" stroke="white" stroke-width="1.5" stroke-linecap="round" stroke-linejoin="round"/>
</svg>
