<svg width="59" height="59" viewBox="0 0 59 59" fill="none" xmlns="http://www.w3.org/2000/svg">
<path d="M29.3802 22.9815C30.044 23.2013 30.7619 23.2013 31.4258 22.9815C33.4395 22.3148 35.1868 21.9814 36.6677 21.9814C38.6984 21.9814 40.646 22.7534 42.0819 24.1275C43.5178 25.5016 44.3245 27.3653 44.3245 29.3086C44.3245 31.2518 43.5178 33.1155 42.0819 34.4896C40.646 35.8637 38.6984 36.6357 36.6677 36.6357C35.195 36.6357 33.4588 36.2944 31.4592 35.611C30.7748 35.3771 30.0312 35.3771 29.3467 35.611C27.3471 36.2944 25.611 36.6357 24.1383 36.6357C22.1076 36.6357 20.16 35.8637 18.7241 34.4896C17.2881 33.1155 16.4814 31.2518 16.4814 29.3086C16.4814 27.3653 17.2881 25.5016 18.7241 24.1275C20.16 22.7534 22.1076 21.9814 24.1383 21.9814C25.6192 21.9814 27.3665 22.3148 29.3802 22.9815ZM24.8344 31.3069C26.3727 31.3069 27.6187 30.4116 27.6187 29.3086C27.6187 28.2042 26.3727 27.3103 24.8344 27.3103C23.296 27.3103 22.0501 28.2042 22.0501 29.3086C22.0501 30.4116 23.296 31.3069 24.8344 31.3069ZM35.9716 31.3069C37.5099 31.3069 38.7559 30.4116 38.7559 29.3086C38.7559 28.2042 37.5099 27.3103 35.9716 27.3103C34.4333 27.3103 33.1873 28.2042 33.1873 29.3086C33.1873 30.4116 34.4333 31.3069 35.9716 31.3069Z" stroke="white" stroke-width="1.5"/>
</svg>
