<svg xmlns="http://www.w3.org/2000/svg" width="17" height="13" viewBox="0 0 17 13" fill="none">
  <path d="M14.409 1.08587C14.3958 1.0748 14.376 1.07295 14.3604 1.06569C13.2903 0.569467 12.1328 0.208972 10.9274 3.72376e-05C10.9167 -0.00030326 10.9061 0.00169477 10.8964 0.00589087C10.8769 0.0142221 10.8656 0.0336723 10.8555 0.0522783C10.8408 0.0795859 10.8258 0.10765 10.8107 0.136308C10.5762 0.581144 10.0943 0.849325 9.59321 0.807072C8.90836 0.749324 8.22008 0.745876 7.53483 0.796725C6.95782 0.839543 6.40738 0.525749 6.11868 0.0243238C6.09947 -0.01409 6.04071 0.00368061 5.99843 0.0112089C4.81425 0.222047 3.6844 0.579368 2.62399 1.06808C2.61164 1.07377 2.59855 1.07654 2.58847 1.08566C2.58392 1.08978 2.57921 1.09555 2.5758 1.10066C0.378051 4.39279 -0.227925 7.59606 0.0713729 10.767C0.0713729 10.8001 0.109207 10.8174 0.135964 10.8369C1.57868 11.888 2.96612 12.5277 4.33768 12.9528C4.37801 12.9662 4.40696 12.9193 4.43177 12.8848C4.74065 12.455 5.01931 12.0027 5.26056 11.528C5.27675 11.4956 5.26056 11.4632 5.22818 11.4551C4.76674 11.277 4.32959 11.0665 3.90053 10.8237C3.8392 10.793 3.92042 10.7145 3.97485 10.6728C4.02009 10.6382 4.06533 10.6027 4.11057 10.5686C4.143 10.5441 4.17992 10.506 4.21625 10.5241C7.00109 11.7951 10.0045 11.7951 12.757 10.5241C12.7731 10.516 12.7974 10.516 12.8136 10.5322C12.9027 10.6051 12.9917 10.6699 13.0808 10.7427C13.1394 10.7867 13.0412 10.8509 12.9776 10.8874C12.5849 11.1129 12.1719 11.2985 11.745 11.4632C11.6877 11.4775 11.7263 11.5624 11.7542 11.6145C11.9908 12.0573 12.2533 12.4803 12.5358 12.8836C12.5637 12.9234 12.6057 12.9681 12.6517 12.9528C14.0313 12.5277 15.4188 11.888 16.8615 10.8369C16.8883 10.8174 16.9261 10.8001 16.9261 10.767C17.2819 7.10377 16.3372 3.92521 14.4228 1.10221C14.4186 1.09605 14.4148 1.09065 14.409 1.08587ZM5.68153 8.83218C4.84769 8.83218 4.15148 8.06311 4.15148 7.11595C4.15148 6.16878 4.8315 5.39971 5.68153 5.39971C6.53965 5.39971 7.21966 6.17687 7.21157 7.11595C7.21157 8.06311 6.53155 8.83218 5.68153 8.83218ZM11.3241 8.83218C10.4902 8.83218 9.79402 8.06311 9.79402 7.11595C9.79402 6.16878 10.474 5.39971 11.3241 5.39971C12.1822 5.39971 12.8622 6.17687 12.8541 7.11595C12.8541 8.06311 12.1822 8.83218 11.3241 8.83218Z" fill="white"/>
</svg>