<svg width="32" height="32" viewBox="0 0 32 32" fill="none" xmlns="http://www.w3.org/2000/svg">
<path d="M14.7059 4.30364L9.94073 13.0389C8.32355 15.9921 3.80627 22.5524 2.79377 24.2399C1.78127 25.9274 3.16632 26.9112 3.58819 27.3331H18.6764H27.4117L28.2059 26.5389V24.9507L16.976 3.98995L15.5 3.50952L14.7059 4.30364Z" fill="#171B1F"/>
<path d="M7.38314 22.8482L6.68455 24.0784H11.4304L12.1174 22.8482H7.38314ZM9.31585 19.4591L8.61661 20.6849H13.3308L14.0129 19.4591H9.31585ZM9.31585 19.4591L8.61661 20.6849H13.3308L14.0129 19.4591H9.31585ZM6.68455 24.0784H11.4304L12.1174 22.8482H7.38314L6.68455 24.0784V24.0784ZM28.7095 24.4939L17.4222 4.06737C17.2427 3.7411 16.9818 3.47068 16.6673 3.28472C16.3646 3.1049 16.0204 3.00647 15.6723 3H15.6452C15.2938 3.00068 14.9457 3.09536 14.6384 3.27382L14.6367 3.27485L14.6351 3.27553C14.3278 3.45501 14.0683 3.71555 13.8851 4.02889L13.8805 4.03638L13.8762 4.04421L2.3073 24.3532L2.30236 24.3621L2.29709 24.3709C2.10836 24.7149 2.0056 25.1056 2 25.5013V25.5207C2 25.9185 2.09881 26.3136 2.28622 26.6634L2.29281 26.6756L2.29939 26.6875C2.49306 27.0322 2.7717 27.3217 3.10502 27.5243L3.10634 27.525L3.10732 27.5257C3.44953 27.7328 3.84016 27.8424 4.23672 27.8424H26.8529C27.2218 27.8424 27.5874 27.7437 27.9105 27.557L27.9157 27.554L27.9213 27.5509C28.2523 27.3551 28.5267 27.0703 28.7148 26.7274L28.8864 26.4147V26.316C28.9611 26.0881 29 25.8484 29 25.6059C29 25.2156 28.8995 24.8314 28.7095 24.4939V24.4939ZM15.0122 4.73422C15.0784 4.62081 15.1726 4.52647 15.2829 4.46176C15.3949 4.39705 15.5221 4.36231 15.6485 4.36197C15.7753 4.36436 15.9008 4.40046 16.0122 4.46653C16.1225 4.53158 16.2144 4.62626 16.2773 4.74172L16.9173 5.8973L12.597 13.4864H18.5328L17.5417 11.697L17.2786 12.2947H14.6674L17.5898 7.16901L22.3264 15.7812H8.73715L15.0122 4.73422ZM4.23672 26.4801C4.07401 26.4801 3.91361 26.4352 3.77297 26.35C3.63464 26.2659 3.51903 26.1464 3.43866 26.0033C3.35896 25.8545 3.31746 25.6883 3.31746 25.5207C3.31976 25.3528 3.36324 25.1887 3.44262 25.0442L7.99213 17.0529H18.0434L12.7673 26.4801H4.23672V26.4801ZM27.5689 26.0357V26.0554C27.4974 26.1859 27.3934 26.2935 27.2679 26.3681C27.1411 26.4413 26.9978 26.4801 26.8529 26.4801H14.1582L19.4366 17.0529H23.0355L25.2275 20.9852H22.4974L21.6687 19.5293H20.726L18.2377 24.0086H24.1666L23.1933 22.2311H25.9372L27.5689 25.1761C27.6433 25.3062 27.6825 25.4546 27.6825 25.6059C27.6825 25.7571 27.6433 25.9056 27.5689 26.0357V26.0357ZM9.31585 19.4591L8.61661 20.6849H13.3308L14.0129 19.4591H9.31585ZM6.68455 24.0784H11.4304L12.1174 22.8482H7.38314L6.68455 24.0784V24.0784Z" fill="#515562"/>
</svg>
