<svg width="32" height="32" viewBox="0 0 32 32" fill="none" xmlns="http://www.w3.org/2000/svg">
<path d="M27 11.3909V20.6089C27 24.1399 24.14 26.9999 20.609 26.9999H11.391C7.86 26.9999 5 24.1399 5 20.6089V11.3909C5 8.65191 6.122 6.66091 8.11299 5.69291C8.83899 5.34091 9.67499 5.89091 9.67499 6.69391V16.4619C9.67499 17.7709 10.181 18.8159 11.094 19.3439C12.018 19.8609 13.184 19.7509 14.372 19.0359L15.802 18.1779C15.89 18.1339 16.11 18.1339 16.176 18.1669L17.628 19.0359C18.42 19.5089 19.102 19.6629 19.652 19.6629C20.224 19.6629 20.664 19.4869 20.928 19.3329C21.819 18.8159 22.325 17.7709 22.325 16.4619V6.69391C22.325 5.89091 23.172 5.34091 23.887 5.69291C25.878 6.66091 27 8.65191 27 11.3909Z" fill="#515562"/>
<path d="M19.5752 5C20.1802 5 20.6752 5.495 20.6752 6.1V16.462C20.6752 17.166 20.4662 17.694 20.1032 17.903C19.7292 18.123 19.1352 18.013 18.4752 17.617L17.0232 16.748C16.4622 16.407 15.5382 16.407 14.9772 16.748L13.5252 17.617C12.8652 18.013 12.2712 18.112 11.8972 17.903C11.5342 17.694 11.3252 17.166 11.3252 16.462V6.1C11.3252 5.495 11.8202 5 12.4252 5H19.5752Z" fill="#515562"/>
</svg>
