<svg xmlns="http://www.w3.org/2000/svg" width="18" height="18" viewBox="0 0 18 18" fill="none">
  <path d="M6.12003 16.5C2.98503 16.5 2.35503 14.6025 3.37503 12.2925L6.56253 5.055H6.33753C5.85003 5.055 5.40003 4.86 5.07753 4.5375C4.74753 4.215 4.55253 3.765 4.55253 3.2775C4.55253 2.3025 5.34753 1.5 6.33003 1.5H11.6625C12.1575 1.5 12.6 1.7025 12.9225 2.025C13.3425 2.445 13.5525 3.06 13.395 3.7125C13.1925 4.5225 12.4125 5.055 11.58 5.055H11.46L14.625 12.3C15.6375 14.61 14.9775 16.5 11.8725 16.5H6.12003Z" stroke="white" stroke-width="1.2" stroke-linecap="round" stroke-linejoin="round"/>
  <path d="M4.45499 9.84002C4.45499 9.84002 6.74999 9.75002 8.99999 10.5C11.25 11.25 13.3725 9.83252 13.3725 9.83252" stroke="white" stroke-width="1.2" stroke-linecap="round" stroke-linejoin="round"/>
</svg>