<svg width="32" height="32" viewBox="0 0 32 32" fill="none" xmlns="http://www.w3.org/2000/svg">
<path fill-rule="evenodd" clip-rule="evenodd" d="M29.05 16.525C29.05 23.442 23.442 29.05 16.525 29.05C9.60802 29.05 4 23.442 4 16.525C4 9.60802 9.60802 4 16.525 4C23.4434 4 29.05 9.60802 29.05 16.525ZM10.1795 16.9456L10.2335 16.8607L13.4918 11.7635C13.5394 11.6889 13.6513 11.6966 13.6874 11.7777C14.2317 12.9976 14.7014 14.5148 14.4813 15.4593C14.3874 15.8479 14.13 16.3742 13.8405 16.8607C13.8032 16.9315 13.762 17.0009 13.7182 17.0679C13.6977 17.0987 13.6629 17.1167 13.6256 17.1167H10.2747C10.1846 17.1167 10.1319 17.019 10.1795 16.9456ZM24.7019 18.6998V17.893C24.7019 17.8183 24.6299 17.7643 24.5591 17.7849L20.7488 18.8864C20.7282 18.8915 20.7102 18.9031 20.696 18.9186C20.2879 19.3694 19.9411 19.6719 19.8492 19.752L19.8429 19.7576C19.6061 19.9583 19.3127 20.0677 19.0038 20.0677H17.6244V18.6612H18.7208C18.7491 18.6612 18.7761 18.6509 18.7967 18.6329L18.9382 18.5029C18.9987 18.4476 19.0708 18.3807 19.157 18.2945C19.1643 18.2871 19.1717 18.2797 19.1793 18.2722C19.2246 18.2271 19.273 18.1788 19.3204 18.1259C19.377 18.0706 19.4324 18.0088 19.4838 17.9483C19.57 17.8557 19.6524 17.7591 19.7386 17.6575C19.8004 17.5906 19.857 17.5147 19.9124 17.4387C19.9741 17.3667 20.0346 17.2856 20.0912 17.2084C20.1123 17.1774 20.1347 17.1461 20.1576 17.1141C20.1795 17.0836 20.2018 17.0525 20.2238 17.0205C20.2649 16.9587 20.3061 16.8931 20.3409 16.8313C20.449 16.6641 20.5403 16.4852 20.6175 16.3063C20.653 16.2297 20.6813 16.149 20.7089 16.0706C20.7123 16.0608 20.7158 16.051 20.7192 16.0412C20.7501 15.9499 20.7758 15.8637 20.7951 15.7723C20.8414 15.5574 20.8517 15.3438 20.8311 15.1301C20.826 15.0632 20.8208 14.9976 20.8054 14.9359V14.9256C20.8003 14.8818 20.79 14.8329 20.7758 14.7879C20.7295 14.5794 20.6574 14.3709 20.5661 14.1663C20.5352 14.0904 20.4992 14.0132 20.4644 13.9424C20.382 13.7893 20.2958 13.6361 20.198 13.4882C20.1784 13.4569 20.1567 13.4253 20.1351 13.3936C20.1184 13.3693 20.1018 13.345 20.0861 13.3209C20.0241 13.2254 19.9545 13.1333 19.8869 13.0439C19.8717 13.0237 19.8565 13.0037 19.8416 12.9837C19.8017 12.9314 19.758 12.879 19.7141 12.8263C19.69 12.7974 19.6658 12.7684 19.6421 12.7392C19.5752 12.6582 19.5096 12.581 19.4427 12.505C19.2033 12.2348 18.9524 11.9903 18.7285 11.7818C18.6873 11.7407 18.6422 11.6995 18.5959 11.6596C18.4222 11.5013 18.2639 11.3636 18.1314 11.2568C18.0916 11.2262 18.0558 11.196 18.0226 11.1679C18 11.1488 17.9785 11.1306 17.9577 11.114C17.9175 11.084 17.8826 11.0575 17.8534 11.0352C17.8348 11.021 17.8185 11.0086 17.8045 10.9981C17.7942 10.9904 17.7827 10.9853 17.7711 10.9814L17.6244 10.9403V9.72548C17.6244 9.52731 17.5446 9.34973 17.4172 9.21974C17.2898 9.08978 17.1122 9.01 16.9166 9.01C16.5254 9.01 16.2089 9.33041 16.2089 9.72548V10.5439L16.1355 10.5233L15.936 10.4667L15.7546 10.4165C15.7541 10.4165 15.7535 10.4163 15.7529 10.416C15.752 10.4157 15.751 10.4152 15.7495 10.4152H15.7456L14.3687 10.042C14.3082 10.0253 14.2567 10.0909 14.2876 10.1463L14.5077 10.5529C14.5202 10.5842 14.536 10.6154 14.5523 10.6475C14.5628 10.6683 14.5735 10.6895 14.5836 10.7112C14.6196 10.7832 14.6557 10.8592 14.6904 10.9351C14.7213 11.002 14.7522 11.0676 14.7882 11.1397C14.8033 11.1736 14.8188 11.2079 14.8345 11.2427C14.892 11.3704 14.9524 11.5047 15.0121 11.6493L15.0121 11.6493C15.0636 11.7715 15.1151 11.8938 15.1601 12.0212C15.2836 12.3416 15.4007 12.6839 15.5024 13.0352C15.5277 13.1138 15.5479 13.1899 15.5684 13.267C15.5771 13.2997 15.5858 13.3326 15.595 13.3659L15.6092 13.4277C15.6504 13.5911 15.6864 13.7532 15.7121 13.9167C15.7327 14.0286 15.752 14.1354 15.7623 14.2435C15.7778 14.3658 15.7932 14.488 15.7984 14.6103C15.8087 14.7222 15.8138 14.8393 15.8138 14.9513C15.8138 15.237 15.7881 15.5123 15.7276 15.7723C15.7238 15.7863 15.72 15.8004 15.7162 15.8147C15.6992 15.8779 15.6817 15.9435 15.6607 16.0065C15.6417 16.074 15.617 16.1414 15.5915 16.2115C15.5824 16.2363 15.5732 16.2614 15.5642 16.287C15.5625 16.2916 15.5608 16.2961 15.5591 16.3007C15.5401 16.3517 15.5209 16.4035 15.4972 16.4543C15.3698 16.7606 15.2116 17.0656 15.0481 17.3512C14.8088 17.7746 14.5682 18.1465 14.3996 18.3858C14.3893 18.4013 14.3792 18.416 14.3695 18.4302C14.3574 18.4478 14.3459 18.4646 14.3352 18.4811C14.2825 18.5557 14.3365 18.6612 14.4279 18.6612H16.2089V20.0677H14.4073C13.9235 20.0677 13.4756 19.7936 13.2595 19.3548C13.1475 19.1348 13.1037 18.8928 13.1295 18.6561C13.1359 18.5853 13.0831 18.5184 13.0111 18.5184H9.37194C9.31017 18.5184 9.25999 18.5686 9.25999 18.6303V18.705C9.25999 21.0264 11.1349 22.9077 13.4486 22.9077H19.9767C21.2004 22.9077 21.8952 21.7926 22.5782 20.6966C22.7685 20.3911 22.958 20.087 23.1577 19.8091C23.5168 19.3098 24.3802 18.9134 24.6324 18.8053C24.6736 18.7873 24.7019 18.7461 24.7019 18.6998Z" fill="#515562"/>
</svg>
