<svg xmlns="http://www.w3.org/2000/svg" width="18" height="18" viewBox="0 0 18 18" fill="none">
<path d="M10.8002 10.1147H11.25H11.4V10.2647V10.7013L11.4057 10.7953C11.429 10.9781 11.5222 11.1463 11.6675 11.2656C11.814 11.3858 12.0024 11.447 12.1941 11.436C12.3858 11.425 12.5654 11.3426 12.6964 11.2066C12.8273 11.0707 12.8998 10.8915 12.9 10.7057V10.2647V10.1147H13.05H13.4956L13.592 10.109C13.7811 10.086 13.9536 9.99357 14.0751 9.85128C14.1974 9.70806 14.2588 9.52503 14.2477 9.33961C14.2366 9.15417 14.1537 8.97925 14.0149 8.85083C13.8761 8.72233 13.6919 8.65021 13.4998 8.65H13.05H12.9V8.5V8.0634L12.8943 7.96933C12.8721 7.7936 12.7854 7.6311 12.6494 7.51252C12.5122 7.39295 12.3345 7.3265 12.15 7.32647L10.8002 10.1147ZM10.8002 10.1147C10.6081 10.1145 10.4239 10.0424 10.2851 9.91387C10.1463 9.78546 10.0634 9.61054 10.0523 9.4251C10.0412 9.23967 10.1026 9.05665 10.2249 8.91342C10.3464 8.77113 10.5189 8.67873 10.708 8.65565M10.8002 10.1147L10.708 8.65565M10.708 8.65565L10.8044 8.65H11.25H11.4V8.5V8.05882C11.4 7.86556 11.4783 7.6796 11.6186 7.54202C11.759 7.40434 11.9501 7.32648 12.15 7.32647L10.708 8.65565ZM9.75 2.76471V2.91471H9.9H11.25C13.0014 2.91471 14.6804 3.59682 15.918 4.81008C17.1554 6.02324 17.85 7.668 17.85 9.38235C17.85 11.0967 17.1554 12.7415 15.918 13.9546C14.6804 15.1679 13.0014 15.85 11.25 15.85H6.75C4.99862 15.85 3.31956 15.1679 2.08204 13.9546C0.844618 12.7415 0.15 11.0967 0.15 9.38235C0.15 7.668 0.844618 6.02324 2.08204 4.81008C3.31956 3.59682 4.99862 2.91471 6.75 2.91471H8.1H8.25V2.76471V1.88235C8.25 1.68909 8.32828 1.50313 8.46862 1.36555C8.60905 1.22787 8.80014 1.15 9 1.15C9.19986 1.15 9.39095 1.22787 9.53139 1.36555C9.67172 1.50313 9.75 1.68909 9.75 1.88235V2.76471ZM11.25 4.37941H6.75C5.39834 4.37941 4.10146 4.9058 3.14481 5.84369C2.18806 6.78169 1.65 8.05452 1.65 9.38235C1.65 10.7102 2.18806 11.983 3.14481 12.921C4.10146 13.8589 5.39834 14.3853 6.75 14.3853H11.25C12.6017 14.3853 13.8985 13.8589 14.8552 12.921C15.8119 11.983 16.35 10.7102 16.35 9.38235C16.35 8.05452 15.8119 6.78169 14.8552 5.84369C13.8985 4.9058 12.6017 4.37941 11.25 4.37941ZM5.85 7.32647C6.4079 7.32647 6.94237 7.54378 7.33598 7.92967C7.72949 8.31546 7.95 8.83807 7.95 9.38235C7.95 9.92664 7.72949 10.4492 7.33598 10.835C6.94237 11.2209 6.4079 11.4382 5.85 11.4382C5.2921 11.4382 4.75763 11.2209 4.36402 10.835C3.97051 10.4492 3.75 9.92664 3.75 9.38235C3.75 8.83807 3.97051 8.31546 4.36402 7.92967C4.75763 7.54378 5.2921 7.32647 5.85 7.32647ZM5.85 8.79118C5.69182 8.79118 5.53953 8.85275 5.42679 8.96328C5.31395 9.07391 5.25 9.22459 5.25 9.38235C5.25 9.54011 5.31395 9.6908 5.42679 9.80142C5.53953 9.91195 5.69182 9.97353 5.85 9.97353C6.00818 9.97353 6.16047 9.91195 6.27321 9.80142C6.38605 9.69079 6.45 9.54011 6.45 9.38235C6.45 9.22459 6.38605 9.07391 6.27321 8.96328C6.16047 8.85275 6.00818 8.79118 5.85 8.79118Z" fill="white" stroke="#1E252B" stroke-width="0.3"/>
</svg>