<svg xmlns="http://www.w3.org/2000/svg" width="18" height="18" viewBox="0 0 18 18" fill="none">
  <path d="M2.25751 8.41504V11.7825C2.25751 15.15 3.60751 16.5 6.97501 16.5H11.0175C14.385 16.5 15.735 15.15 15.735 11.7825V8.41504" stroke="white" stroke-width="1.2" stroke-linecap="round" stroke-linejoin="round"/>
  <path d="M8.99999 9C10.3725 9 11.385 7.8825 11.25 6.51L10.755 1.5H7.25249L6.74999 6.51C6.61499 7.8825 7.62749 9 8.99999 9Z" stroke="white" stroke-width="1.2" stroke-linecap="round" stroke-linejoin="round"/>
  <path d="M13.7325 9C15.2475 9 16.3575 7.77 16.2075 6.2625L15.9975 4.2C15.7275 2.25 14.9775 1.5 13.0125 1.5H10.725L11.25 6.7575C11.3775 7.995 12.495 9 13.7325 9Z" stroke="white" stroke-width="1.2" stroke-linecap="round" stroke-linejoin="round"/>
  <path d="M4.22997 9C5.46747 9 6.58497 7.995 6.70497 6.7575L6.86997 5.1L7.22997 1.5H4.94247C2.97747 1.5 2.22747 2.25 1.95747 4.2L1.75497 6.2625C1.60497 7.77 2.71497 9 4.22997 9Z" stroke="white" stroke-width="1.2" stroke-linecap="round" stroke-linejoin="round"/>
  <path d="M9 12.75C7.7475 12.75 7.125 13.3725 7.125 14.625V16.5H10.875V14.625C10.875 13.3725 10.2525 12.75 9 12.75Z" stroke="white" stroke-width="1.2" stroke-linecap="round" stroke-linejoin="round"/>
</svg>