<svg width="32" height="32" viewBox="0 0 32 32" fill="none" xmlns="http://www.w3.org/2000/svg">
<path d="M28.2962 21.7752C27.9762 25.3357 25.4026 27.6693 21.6688 27.6693H9.66743C5.98701 27.6693 3 24.6822 3 21.0018V11.6674C3 8.04035 5.18692 5.50672 8.5873 5.08001C8.93401 5.02667 9.29405 5 9.66743 5H21.6688C22.0155 5 22.3489 5.01333 22.6689 5.06667C25.8559 5.44005 28.0162 7.66697 28.2962 10.894C28.3037 10.9853 28.2919 11.0772 28.2616 11.1637C28.2313 11.2501 28.1832 11.3293 28.1203 11.3959C28.0574 11.4626 27.9812 11.5152 27.8967 11.5505C27.8121 11.5858 27.7211 11.6029 27.6295 11.6008H25.5626C24.2824 11.6008 23.0956 12.0941 22.2422 12.9742C21.2287 13.961 20.722 15.3478 20.842 16.7347C21.0554 19.1616 23.189 21.0685 25.7226 21.0685H27.6295C28.0162 21.0685 28.3362 21.3885 28.2962 21.7752Z" fill="white"/>
<path d="M29.6702 14.9612V17.7082C29.6702 18.4416 29.0834 19.0417 28.3367 19.0684H25.7231C24.2829 19.0684 22.9627 18.0149 22.8427 16.5747C22.7627 15.7347 23.0828 14.9479 23.6428 14.4012C24.1362 13.8944 24.8163 13.6011 25.563 13.6011H28.3367C29.0834 13.6277 29.6702 14.2278 29.6702 14.9612Z" fill="white"/>
</svg>
